<svg width="64" height="80" viewBox="0 0 64 80" fill="none" xmlns="http://www.w3.org/2000/svg">
<path fill-rule="evenodd" clip-rule="evenodd" d="M0 17.6083C0 13.714 2.46674 10.2471 6.14585 8.97058L29.003 1.03987C30.9442 0.366318 33.0558 0.366318 34.997 1.03987L57.8541 8.97058C61.5333 10.2471 64 13.714 64 17.6083V44.1368C64 62.1233 50.7533 77.363 32.942 79.8675C32.3171 79.9554 31.6829 79.9554 31.058 79.8675C13.2467 77.363 0 62.1233 0 44.1369V17.6083Z" fill="#03CDC1"/>
<g filter="url(#filter0_d_4599_39376)">
<path fill-rule="evenodd" clip-rule="evenodd" d="M50.0512 54.5486C51.7314 50.7533 52.5716 46.3489 52.5716 41.3354V38.489C52.5489 33.4989 51.686 29.1297 49.9831 25.3813C48.2802 21.6094 45.862 18.7279 42.7286 16.7365C39.6179 14.7217 36.0418 13.7144 32.0001 13.7144C27.9585 13.7144 24.371 14.7335 21.2376 16.7717C18.1269 18.7864 15.7087 21.7031 13.9831 25.5218C12.2802 29.3405 11.4287 33.7449 11.4287 38.735V41.6166C11.4514 46.5129 12.3142 50.8353 14.0172 54.5837C15.7428 58.3321 18.1723 61.2254 21.3057 63.2636C24.4618 65.2784 28.0493 66.2858 32.0683 66.2858C36.1326 66.2858 39.7201 65.2784 42.8308 63.2636C45.9642 61.2254 48.371 58.3204 50.0512 54.5486ZM43.7751 45.2572C43.3975 49.1278 42.4242 52.2014 40.8554 54.4783C38.8119 57.477 35.8828 58.9764 32.0683 58.9764C28.2991 58.9764 25.3473 57.4419 23.213 54.3729C21.6214 52.0597 20.6296 49.0211 20.2377 45.2572H43.7751ZM43.917 36.8458C43.7129 32.0572 42.681 28.3177 40.8213 25.6273C38.7551 22.6051 35.8147 21.094 32.0001 21.094C28.2764 21.094 25.3587 22.6051 23.2471 25.6273C21.3569 28.3406 20.3033 32.0801 20.0863 36.8458H43.917Z" fill="white"/>
</g>
<defs>
<filter id="filter0_d_4599_39376" x="2.28585" y="6.85721" width="59.4283" height="70.8572" filterUnits="userSpaceOnUse" color-interpolation-filters="sRGB">
<feFlood flood-opacity="0" result="BackgroundImageFix"/>
<feColorMatrix in="SourceAlpha" type="matrix" values="0 0 0 0 0 0 0 0 0 0 0 0 0 0 0 0 0 0 127 0" result="hardAlpha"/>
<feOffset dy="2.28571"/>
<feGaussianBlur stdDeviation="4.57143"/>
<feComposite in2="hardAlpha" operator="out"/>
<feColorMatrix type="matrix" values="0 0 0 0 0.290196 0 0 0 0 0.290196 0 0 0 0 0.886275 0 0 0 0.4 0"/>
<feBlend mode="normal" in2="BackgroundImageFix" result="effect1_dropShadow_4599_39376"/>
<feBlend mode="normal" in="SourceGraphic" in2="effect1_dropShadow_4599_39376" result="shape"/>
</filter>
</defs>
</svg>
