<svg width="79" height="81" viewBox="0 0 79 81" fill="none" xmlns="http://www.w3.org/2000/svg">
<path d="M64.2216 23.5365L39.3668 10.4567L14.5121 23.5381V49.1571C16.289 50.183 17.6777 51.7666 18.4629 53.6621C19.248 55.5577 19.3858 57.6594 18.8547 59.6413C18.3237 61.6232 17.1536 63.3744 15.5258 64.6235C13.898 65.8725 11.9036 66.5495 9.8518 66.5495C7.80003 66.5495 5.80559 65.8725 4.17781 64.6235C2.55003 63.3744 1.37988 61.6232 0.848843 59.6413C0.317806 57.6594 0.455559 55.5577 1.24074 53.6621C2.02592 51.7666 3.41464 50.183 5.19152 49.1571V20.7248C5.19142 19.9275 5.39588 19.1435 5.78536 18.4478C6.17483 17.7521 6.73629 17.1679 7.41603 16.7512L7.68011 16.6005L37.1952 1.06625C37.8155 0.739573 38.5015 0.557067 39.2022 0.532323C39.9028 0.507578 40.6 0.641233 41.2418 0.923332L41.537 1.06625L71.052 16.6005C71.7577 16.9721 72.3563 17.5186 72.7904 18.1876C73.2245 18.8567 73.4796 19.626 73.5313 20.4219L73.5422 20.7248V49.1571C75.3191 50.183 76.7078 51.7666 77.493 53.6621C78.2781 55.5577 78.4159 57.6594 77.8848 59.6413C77.3538 61.6232 76.1837 63.3744 74.5559 64.6235C72.9281 65.8725 70.9337 66.5495 68.8819 66.5495C66.8301 66.5495 64.8357 65.8725 63.2079 64.6235C61.5801 63.3744 60.41 61.6232 59.8789 59.6413C59.3479 57.6594 59.4857 55.5577 60.2708 53.6621C61.056 51.7666 62.4447 50.183 64.2216 49.1571V23.5365ZM48.6874 71.2111C48.687 72.847 48.256 74.454 47.4378 75.8706C46.6196 77.2872 45.4429 78.4635 44.0261 79.2813C42.6092 80.0991 41.0021 80.5295 39.3661 80.5294C37.7302 80.5293 36.1231 80.0986 34.7064 79.2806C33.2897 78.4626 32.1132 77.2861 31.2952 75.8694C30.4772 74.4527 30.0464 72.8456 30.0463 71.2097C30.0462 69.5737 30.4766 67.9666 31.2944 66.5497C32.1121 65.1329 33.2884 63.9562 34.705 63.138V26.1618C34.705 24.9258 35.196 23.7405 36.07 22.8665C36.944 21.9925 38.1293 21.5015 39.3653 21.5015C40.6013 21.5015 41.7866 21.9925 42.6606 22.8665C43.5346 23.7405 44.0256 24.9258 44.0256 26.1618V63.138C45.4429 63.9559 46.6198 65.1326 47.4379 66.5498C48.256 67.967 48.6864 69.5747 48.6858 71.2111H48.6874Z" fill="url(#paint0_linear_4686_39664)"/>
<defs>
<linearGradient id="paint0_linear_4686_39664" x1="80.6119" y1="40.5294" x2="-10.9493" y2="40.5294" gradientUnits="userSpaceOnUse">
<stop stop-color="#03CDC1"/>
<stop offset="1" stop-color="#8AB9FF"/>
</linearGradient>
</defs>
</svg>
