<svg width="60" height="81" viewBox="0 0 60 81" fill="none" xmlns="http://www.w3.org/2000/svg">
<path d="M59.6133 56.4367C59.6133 61.731 58.2368 66.1782 55.4838 69.7782C52.8013 73.3077 49.2718 75.9196 44.8953 77.6137C40.5893 79.3079 35.9656 80.155 31.0243 80.155C23.8241 80.155 17.3299 78.4961 11.5415 75.1784C5.75309 71.7901 1.90593 67.0252 0 60.8839L12.4944 53.7896C14.1886 57.7426 16.6592 60.8133 19.9064 63.0016C23.1535 65.1899 27.036 66.284 31.5537 66.284C35.2244 66.284 38.1186 65.5428 40.2363 64.0605C42.4246 62.5781 43.5188 60.4251 43.5188 57.6015C43.5188 55.3426 42.7776 53.4719 41.2952 51.9896C39.8834 50.5072 38.0833 49.3424 35.895 48.4954C33.7773 47.6483 30.8478 46.66 27.1066 45.5306C22.0947 44.0482 18.0005 42.6011 14.8239 41.1893C11.6474 39.7069 8.92964 37.5186 6.67076 34.6244C4.41188 31.7302 3.28244 27.9184 3.28244 23.1888C3.28244 18.1769 4.58835 13.9415 7.20018 10.4826C9.8826 6.95312 13.3768 4.34129 17.6828 2.64713C22.0594 0.882377 26.7536 0 31.7655 0C38.6127 0 44.4717 1.55298 49.3424 4.65894C54.2131 7.76491 57.3544 11.965 58.7662 17.2593L46.2718 24.3536C45.0011 21.0358 43.0952 18.4593 40.554 16.624C38.0127 14.718 34.8362 13.7651 31.0243 13.7651C27.5654 13.7651 24.7418 14.5768 22.5535 16.2004C20.4358 17.7534 19.377 19.8358 19.377 22.4476C19.377 24.4242 20.0476 26.083 21.3888 27.4242C22.73 28.6948 24.4242 29.7537 26.4713 30.6008C28.589 31.3773 31.4126 32.2949 34.9421 33.3538C40.0245 34.8362 44.2247 36.3539 47.5424 37.9068C50.8601 39.3892 53.6837 41.6481 56.0132 44.6835C58.4132 47.6483 59.6133 51.566 59.6133 56.4367Z" fill="url(#paint0_linear_6432_53047)"/>
<defs>
<linearGradient id="paint0_linear_6432_53047" x1="61.4626" y1="40.0775" x2="-8.81145" y2="40.0775" gradientUnits="userSpaceOnUse">
<stop stop-color="#03CDC1"/>
<stop offset="1" stop-color="#8AB9FF"/>
</linearGradient>
</defs>
</svg>
