<svg width="80" height="74" viewBox="0 0 80 74" fill="none" xmlns="http://www.w3.org/2000/svg">
<path d="M24.6153 73.8459C38.2564 73.8459 49.2306 62.8716 49.2306 49.2305C49.2306 35.5895 38.2564 24.6152 24.6153 24.6152C10.9742 24.6152 0 35.5895 0 49.2305C0 62.8716 10.9742 73.8459 24.6153 73.8459Z" fill="#2775CA"/>
<path d="M31.3841 53.1276C31.3841 49.538 29.2303 48.3072 24.9226 47.7945C21.8457 47.3841 21.2303 46.5637 21.2303 45.1277C21.2303 43.6916 22.256 42.7688 24.3072 42.7688C26.1533 42.7688 27.1791 43.3842 27.6918 44.9226C27.7944 45.2303 28.1021 45.4354 28.4098 45.4354H30.0507C30.461 45.4354 30.7687 45.1277 30.7687 44.7176V44.6149C30.3584 42.3584 28.5122 40.6149 26.1533 40.4099V37.9484C26.1533 37.538 25.8457 37.2303 25.3329 37.1277H23.7945C23.3841 37.1277 23.0764 37.4354 22.9738 37.9484V40.3072C19.8969 40.7176 17.9483 42.7688 17.9483 45.333C17.9483 48.7176 19.9995 50.0507 24.3072 50.5637C27.1791 51.0764 28.1021 51.6918 28.1021 53.3329C28.1021 54.974 26.6661 56.1022 24.7175 56.1022C22.0507 56.1022 21.1276 54.9738 20.8199 53.4353C20.7175 53.0252 20.4098 52.8199 20.1022 52.8199H18.3584C17.9483 52.8199 17.6406 53.1276 17.6406 53.538V53.6406C18.0507 56.2046 19.6918 58.0507 23.0764 58.5637V61.0252C23.0764 61.4353 23.3841 61.743 23.8969 61.8456H25.4353C25.8456 61.8456 26.1533 61.538 26.256 61.0252V58.5637C29.3329 58.0507 31.3841 55.8969 31.3841 53.1276Z" fill="white"/>
<path d="M19.3843 63.8972C11.3843 61.0256 7.28171 52.1026 10.2562 44.205C11.7947 39.8973 15.1793 36.6153 19.3843 35.0769C19.7947 34.8718 19.9997 34.5641 19.9997 34.0512V32.6154C19.9997 32.205 19.7947 31.8973 19.3843 31.7949C19.2817 31.7949 19.0766 31.7949 18.974 31.8973C9.23051 34.9742 3.89711 45.3333 6.97402 55.0768C8.82017 60.8203 13.2305 65.2306 18.974 67.0768C19.3843 67.2818 19.7947 67.0768 19.8971 66.6665C19.9997 66.5641 19.9997 66.4614 19.9997 66.2564V64.8203C19.9997 64.5126 19.692 64.1025 19.3843 63.8972ZM30.2562 31.8973C29.8458 31.6923 29.4355 31.8973 29.3331 32.3077C29.2305 32.4103 29.2305 32.5127 29.2305 32.718V34.1538C29.2305 34.5641 29.5381 34.9742 29.8458 35.1795C37.8458 38.0512 41.9484 46.9742 38.9739 54.8718C37.4355 59.1795 34.0509 62.4614 29.8458 63.9999C29.4355 64.2049 29.2305 64.5126 29.2305 65.0256V66.4614C29.2305 66.8717 29.4355 67.1794 29.8458 67.2818C29.9485 67.2818 30.1535 67.2818 30.2562 67.1794C39.9997 64.1025 45.3331 53.7434 42.2561 43.9999C40.41 38.1538 35.897 33.7435 30.2562 31.8973Z" fill="white"/>
<g clip-path="url(#clip0_5492_48931)">
<path fill-rule="evenodd" clip-rule="evenodd" d="M75.6799 54.2948C78.4767 43.0849 71.6538 31.7334 60.4437 28.9355C49.2379 26.1388 37.8879 32.9612 35.0902 44.1719C32.2933 55.3796 39.1102 66.7283 50.3219 69.5255C61.5335 72.3226 72.8875 65.5006 75.6799 54.2948ZM49.4281 73.108C62.6179 76.3987 75.9769 68.3734 79.2627 55.1876C82.5536 41.9974 74.5246 28.6442 61.3378 25.353C48.151 22.0619 34.7986 30.0909 31.5077 43.2779C28.2168 56.4649 36.2384 69.8174 49.4281 73.108Z" fill="#7071F7"/>
<path d="M60.4428 28.9346C71.6529 31.7324 78.4758 43.0839 75.679 54.2939C72.8866 65.4997 61.5326 72.3216 50.321 69.5245C39.1093 66.7273 32.2923 55.3787 35.0893 44.171C37.887 32.9602 49.237 26.1378 60.4428 28.9346Z" fill="white"/>
<path d="M64.7621 53.9846C64.7621 49.516 62.1319 47.9839 56.8713 47.3456C53.1137 46.8348 52.3622 45.8135 52.3622 44.0259C52.3622 42.2382 53.6148 41.0894 56.1198 41.0894C58.3743 41.0894 59.6269 41.8555 60.2531 43.7706C60.3784 44.1536 60.7542 44.4089 61.1299 44.4089H63.1338C63.6349 44.4089 64.0106 44.0259 64.0106 43.5154V43.3876C63.5095 40.5786 61.255 38.4082 58.3743 38.153V35.0887C58.3743 34.5779 57.9986 34.1949 57.3724 34.0671H55.4936C54.9925 34.0671 54.6168 34.4502 54.4914 35.0887V38.0252C50.7339 38.536 48.3543 41.0894 48.3543 44.2814C48.3543 48.4947 50.8592 50.1543 56.1198 50.7929C59.6269 51.4312 60.7542 52.1972 60.7542 54.2401C60.7542 56.283 59.0005 57.6874 56.6209 57.6874C53.3641 57.6874 52.2369 56.2827 51.8611 54.3676C51.7361 53.8571 51.3603 53.6015 50.9846 53.6015H48.8551C48.3543 53.6015 47.9785 53.9846 47.9785 54.4954V54.6232C48.4793 57.8148 50.4835 60.113 54.6168 60.7516V63.8158C54.6168 64.3263 54.9925 64.7093 55.6187 64.8371H57.4974C57.9986 64.8371 58.3743 64.4541 58.4997 63.8158V60.7516C62.2572 60.113 64.7621 57.4318 64.7621 53.9846Z" fill="#7071F7" stroke="#7071F7" stroke-width="1.24999"/>
</g>
<path fill-rule="evenodd" clip-rule="evenodd" d="M20.9229 9.48135C20.9229 7.38444 22.2511 5.51766 24.2321 4.8303L36.5398 0.559928C37.5851 0.197249 38.7221 0.197248 39.7673 0.559927L52.075 4.8303C54.056 5.51766 55.3843 7.38444 55.3843 9.48135V23.7659C55.3843 33.4509 48.2515 41.6569 38.6608 43.0055C38.3243 43.0528 37.9828 43.0528 37.6463 43.0055C28.0557 41.6569 20.9229 33.4509 20.9229 23.7659V9.48135Z" fill="#03CDC1"/>
<g filter="url(#filter0_d_5492_48931)">
<path fill-rule="evenodd" clip-rule="evenodd" d="M47.8738 29.3721C48.7786 27.3285 49.2309 24.9569 49.2309 22.2574V20.7247C49.2187 18.0377 48.7541 15.6851 47.8371 13.6667C46.9202 11.6357 45.6181 10.0841 43.9309 9.01183C42.2559 7.92696 40.3303 7.38452 38.154 7.38452C35.9778 7.38452 34.0461 7.93327 32.3588 9.03075C30.6839 10.1156 29.3818 11.6862 28.4526 13.7424C27.5356 15.7986 27.0771 18.1702 27.0771 20.8571V22.4087C27.0894 25.0452 27.554 27.3727 28.4709 29.391C29.4001 31.4094 30.7083 32.9673 32.3955 34.0648C34.095 35.1497 36.0267 35.6921 38.1907 35.6921C40.3792 35.6921 42.3109 35.1497 43.9859 34.0648C45.6731 32.9673 46.9691 31.4031 47.8738 29.3721ZM44.4944 24.3691C44.291 26.4532 43.767 28.1083 42.9222 29.3343C41.8219 30.949 40.2447 31.7563 38.1907 31.7563C36.1612 31.7563 34.5718 30.93 33.4225 29.2775C32.5655 28.0319 32.0315 26.3958 31.8204 24.3691H44.4944ZM44.5708 19.8399C44.4609 17.2614 43.9053 15.2479 42.9039 13.7991C41.7913 12.1718 40.208 11.3582 38.154 11.3582C36.149 11.3582 34.5779 12.1718 33.4409 13.7991C32.4231 15.2602 31.8558 17.2737 31.7389 19.8399H44.5708Z" fill="white"/>
</g>
<defs>
<filter id="filter0_d_5492_48931" x="22.1541" y="3.69222" width="31.9994" height="38.1537" filterUnits="userSpaceOnUse" color-interpolation-filters="sRGB">
<feFlood flood-opacity="0" result="BackgroundImageFix"/>
<feColorMatrix in="SourceAlpha" type="matrix" values="0 0 0 0 0 0 0 0 0 0 0 0 0 0 0 0 0 0 127 0" result="hardAlpha"/>
<feOffset dy="1.23077"/>
<feGaussianBlur stdDeviation="2.46153"/>
<feComposite in2="hardAlpha" operator="out"/>
<feColorMatrix type="matrix" values="0 0 0 0 0.290196 0 0 0 0 0.290196 0 0 0 0 0.886275 0 0 0 0.4 0"/>
<feBlend mode="normal" in2="BackgroundImageFix" result="effect1_dropShadow_5492_48931"/>
<feBlend mode="normal" in="SourceGraphic" in2="effect1_dropShadow_5492_48931" result="shape"/>
</filter>
<clipPath id="clip0_5492_48931">
<rect width="49.2309" height="49.2306" fill="white" transform="translate(30.7695 24.6152)"/>
</clipPath>
</defs>
</svg>
