<svg width="64" height="64" viewBox="0 0 64 64" fill="none" xmlns="http://www.w3.org/2000/svg">
<path d="M0 5C0 2.23858 2.23858 0 5 0H27C29.7614 0 32 2.23858 32 5V64H5C2.23858 64 0 61.7614 0 59V5Z" fill="#EAB300"/>
<rect x="9.63672" y="55.0027" width="12.7273" height="5.92208" rx="1.15325" fill="#EDEDF1"/>
<path fill-rule="evenodd" clip-rule="evenodd" d="M14.4357 57.8078C14.5292 58.992 13.548 59.9732 12.3637 59.8797C11.432 59.8062 10.6772 59.0513 10.6038 58.1197C10.5107 56.9353 11.4917 55.9544 12.6758 56.0479C13.6075 56.1215 14.3622 56.8762 14.4357 57.8078" fill="#EAB300"/>
<path fill-rule="evenodd" clip-rule="evenodd" d="M12.8059 58.5389C12.7771 58.544 12.4639 58.6011 12.4591 58.602L12.3652 58.0695C12.402 58.063 12.6941 58.0145 12.7133 58.012C13.0035 57.9736 13.0911 58.1356 13.1035 58.2062C13.1215 58.3079 13.0628 58.4936 12.8059 58.5389ZM12.2354 57.3353C12.2763 57.3283 12.4268 57.3021 12.5166 57.2863C12.7409 57.2468 12.8498 57.4056 12.8603 57.4649C12.8733 57.5386 12.8635 57.7154 12.6016 57.7765C12.5713 57.7835 12.3264 57.8258 12.322 57.8264L12.2354 57.3353ZM13.1529 57.7551C13.2682 57.6432 13.3404 57.5275 13.3072 57.339C13.2544 57.0397 12.9283 56.9524 12.7417 56.9669C12.7226 56.969 12.7035 56.9715 12.6846 56.9746L12.6345 56.6881L12.3362 56.7415L12.3875 57.0277L12.1875 57.0624L12.1378 56.777L11.8328 56.831L11.8825 57.1149C11.8291 57.1256 11.5075 57.182 11.5075 57.182L11.5522 57.4354C11.5522 57.4354 11.6335 57.4211 11.6568 57.4173C11.7575 57.3993 11.814 57.4544 11.8217 57.4982L11.8247 57.5139L12.0174 58.6069C12.0229 58.6459 11.9968 58.6816 11.9623 58.6895C11.9169 58.6996 11.8487 58.7101 11.8487 58.7101L11.8407 59.0078L12.2064 58.9437L12.2569 59.2312L12.561 59.1776L12.5097 58.8898L12.7096 58.8546L12.76 59.143L13.0581 59.0905L13.0077 58.8037C13.0077 58.8037 13.024 58.8002 13.0295 58.7993C13.3734 58.7386 13.6378 58.4845 13.585 58.1581C13.542 57.8906 13.2836 57.7771 13.1529 57.7551Z" fill="white"/>
<path d="M17.0968 57.7827C17.3776 57.8627 17.5181 58.0441 17.5181 58.327C17.5181 58.528 17.4494 58.6848 17.312 58.7976C17.1747 58.9083 16.9717 58.9636 16.7031 58.9636H15.8974V56.7125H16.6078C16.7656 56.7125 16.903 56.7371 17.0199 56.7863C17.1367 56.8355 17.2269 56.9062 17.2905 56.9985C17.3541 57.0908 17.3858 57.1984 17.3858 57.3214C17.3858 57.5367 17.2895 57.6904 17.0968 57.7827ZM16.1711 56.9554V57.6935H16.5616C16.7318 57.6935 16.863 57.6607 16.9553 57.5951C17.0496 57.5295 17.0968 57.4383 17.0968 57.3214C17.0968 57.2086 17.0496 57.1195 16.9553 57.0538C16.861 56.9882 16.7298 56.9554 16.5616 56.9554H16.1711ZM16.6539 58.7237C16.8466 58.7237 16.9901 58.6889 17.0845 58.6192C17.1808 58.5495 17.229 58.4521 17.229 58.327C17.229 58.1999 17.1808 58.1005 17.0845 58.0287C16.9901 57.957 16.8466 57.9211 16.6539 57.9211H16.1711V58.7237H16.6539ZM17.5618 56.7125H19.2348V56.9554H18.5336V58.9636H18.2599V56.9554H17.5618V56.7125ZM20.3454 58.7453C20.5914 58.7453 20.7718 58.6315 20.8866 58.4039L21.108 58.5331C21.0445 58.6786 20.9461 58.7924 20.8128 58.8744C20.6795 58.9564 20.5258 58.9975 20.3515 58.9975C20.1608 58.9975 19.9876 58.9482 19.8318 58.8498C19.676 58.7514 19.5529 58.6141 19.4627 58.4377C19.3725 58.2614 19.3274 58.0605 19.3274 57.835C19.3274 57.6095 19.3725 57.4085 19.4627 57.2322C19.5529 57.0559 19.676 56.9196 19.8318 56.8232C19.9876 56.7248 20.1608 56.6756 20.3515 56.6756C20.5258 56.6756 20.6795 56.7166 20.8128 56.7986C20.9461 56.8806 21.0445 56.9944 21.108 57.14L20.8866 57.2691C20.7718 57.0415 20.5914 56.9278 20.3454 56.9278C20.2018 56.9278 20.0747 56.9657 19.964 57.0415C19.8533 57.1174 19.7672 57.224 19.7057 57.3614C19.6462 57.4987 19.6165 57.6566 19.6165 57.835C19.6165 58.0133 19.6462 58.1722 19.7057 58.3117C19.7672 58.449 19.8533 58.5556 19.964 58.6315C20.0747 58.7073 20.2018 58.7453 20.3454 58.7453Z" fill="black"/>
<path d="M32 21H59C61.7614 21 64 23.2386 64 26V59C64 61.7614 61.7614 64 59 64H32V21Z" fill="#03CDC1"/>
<rect x="41.5205" y="55.0027" width="12.9584" height="5.92208" rx="1.15325" fill="#EDEDF1"/>
<path fill-rule="evenodd" clip-rule="evenodd" d="M42.4814 56.8515C42.4814 56.6861 42.5862 56.5389 42.7424 56.4847L43.8919 56.0859C43.9743 56.0573 44.0639 56.0573 44.1463 56.0859L45.2958 56.4847C45.452 56.5389 45.5568 56.6861 45.5568 56.8515V58.3201C45.5568 59.0941 44.9867 59.7498 44.2203 59.8576L44.0596 59.8802C44.0328 59.884 44.0055 59.884 43.9786 59.8802L43.8179 59.8576C43.0515 59.7498 42.4814 59.0941 42.4814 58.3201V56.8515Z" fill="#03CDC1"/>
<g filter="url(#filter0_d_4696_39625)">
<path fill-rule="evenodd" clip-rule="evenodd" d="M44.8862 58.6628C44.9669 58.4805 45.0073 58.2688 45.0073 58.0279V57.8912C45.0062 57.6514 44.9647 57.4414 44.8829 57.2613C44.8011 57.0801 44.6849 56.9416 44.5343 56.8459C44.3848 56.7491 44.213 56.7007 44.0188 56.7007C43.8246 56.7007 43.6522 56.7497 43.5016 56.8476C43.3521 56.9444 43.2359 57.0846 43.153 57.2681C43.0712 57.4516 43.0303 57.6632 43.0303 57.903V58.0414C43.0314 58.2767 43.0728 58.4844 43.1547 58.6645C43.2376 58.8447 43.3543 58.9837 43.5049 59.0816C43.6565 59.1784 43.8289 59.2268 44.022 59.2268C44.2173 59.2268 44.3897 59.1784 44.5392 59.0816C44.6898 58.9837 44.8054 58.8441 44.8862 58.6628ZM44.5846 58.2164C44.5664 58.4024 44.5197 58.5501 44.4443 58.6595C44.3461 58.8036 44.2053 58.8756 44.022 58.8756C43.8409 58.8756 43.6991 58.8019 43.5965 58.6544C43.5201 58.5433 43.4724 58.3972 43.4536 58.2164H44.5846ZM44.5914 57.8122C44.5816 57.5821 44.532 57.4024 44.4426 57.2731C44.3434 57.1279 44.2021 57.0553 44.0188 57.0553C43.8398 57.0553 43.6996 57.1279 43.5982 57.2731C43.5073 57.4035 43.4567 57.5832 43.4463 57.8122H44.5914Z" fill="white"/>
</g>
<path d="M47.0194 57.835C47.0194 57.6033 47.0635 57.3993 47.1517 57.223C47.2398 57.0467 47.3608 56.9114 47.5146 56.817C47.6704 56.7227 47.8446 56.6756 48.0374 56.6756C48.2301 56.6756 48.4033 56.7238 48.5571 56.8201C48.7129 56.9144 48.8349 57.0497 48.9231 57.2261C49.0112 57.4003 49.0553 57.6033 49.0553 57.835C49.0553 58.0687 49.0102 58.2737 48.92 58.45C48.8318 58.6243 48.7109 58.7596 48.5571 58.856C48.4033 58.9503 48.2301 58.9975 48.0374 58.9975C47.8446 58.9975 47.6704 58.9503 47.5146 58.856C47.3608 58.7617 47.2398 58.6264 47.1517 58.45C47.0635 58.2737 47.0194 58.0687 47.0194 57.835ZM47.3085 57.835C47.3085 58.0133 47.3372 58.1712 47.3946 58.3086C47.4541 58.4459 47.5392 58.5536 47.6499 58.6315C47.7606 58.7073 47.8898 58.7453 48.0374 58.7453C48.185 58.7453 48.3131 58.7073 48.4218 58.6315C48.5325 58.5536 48.6176 58.4459 48.677 58.3086C48.7365 58.1712 48.7662 58.0133 48.7662 57.835C48.7662 57.6546 48.7365 57.4957 48.677 57.3583C48.6176 57.2209 48.5325 57.1143 48.4218 57.0385C48.3131 56.9626 48.185 56.9247 48.0374 56.9247C47.8898 56.9247 47.7606 56.9626 47.6499 57.0385C47.5412 57.1143 47.4572 57.2209 47.3977 57.3583C47.3382 57.4957 47.3085 57.6546 47.3085 57.835ZM50.8934 58.3393C50.8934 58.4685 50.8637 58.5833 50.8042 58.6838C50.7448 58.7822 50.6576 58.8591 50.5428 58.9144C50.428 58.9698 50.2917 58.9975 50.1338 58.9975C49.9144 58.9975 49.7268 58.9462 49.571 58.8437C49.4152 58.7412 49.3127 58.6048 49.2635 58.4347L49.4849 58.3055C49.5403 58.447 49.6223 58.5556 49.7309 58.6315C49.8396 58.7073 49.9749 58.7453 50.1369 58.7453C50.2845 58.7453 50.3993 58.7125 50.4813 58.6469C50.5633 58.5813 50.6043 58.49 50.6043 58.3732C50.6043 58.2789 50.5787 58.203 50.5274 58.1456C50.4762 58.0861 50.4126 58.04 50.3368 58.0072C50.263 57.9744 50.1605 57.9385 50.0292 57.8996C49.8837 57.8565 49.7658 57.8155 49.6756 57.7765C49.5874 57.7376 49.5126 57.6792 49.4511 57.6013C49.3896 57.5233 49.3588 57.4208 49.3588 57.2937C49.3588 57.1646 49.3916 57.0538 49.4572 56.9616C49.5228 56.8673 49.613 56.7965 49.7279 56.7494C49.8447 56.7002 49.9749 56.6756 50.1184 56.6756C50.3193 56.6756 50.4813 56.7197 50.6043 56.8078C50.7294 56.896 50.8135 57.0077 50.8565 57.143L50.6351 57.2722C50.5879 57.1635 50.5223 57.0784 50.4383 57.0169C50.3563 56.9554 50.2466 56.9247 50.1092 56.9247C49.9698 56.9247 49.858 56.9565 49.774 57.02C49.6899 57.0815 49.6479 57.1646 49.6479 57.2691C49.6479 57.347 49.6705 57.4106 49.7156 57.4598C49.7627 57.509 49.8211 57.5479 49.8909 57.5767C49.9606 57.6054 50.0559 57.6371 50.1769 57.672C50.3306 57.7171 50.4547 57.7612 50.549 57.8042C50.6433 57.8473 50.7243 57.9119 50.7919 57.998C50.8596 58.0841 50.8934 58.1979 50.8934 58.3393ZM51.8567 56.7125C52.0761 56.7125 52.2729 56.7566 52.4472 56.8447C52.6235 56.9329 52.7619 57.062 52.8624 57.2322C52.9628 57.4003 53.0131 57.6013 53.0131 57.835C53.0131 58.0708 52.9628 58.2737 52.8624 58.4439C52.764 58.612 52.6266 58.7412 52.4503 58.8314C52.276 58.9195 52.0782 58.9636 51.8567 58.9636H51.2417V56.7125H51.8567ZM51.8198 58.7207C52.1028 58.7207 52.3242 58.6438 52.4841 58.49C52.644 58.3363 52.724 58.1179 52.724 57.835C52.724 57.5561 52.643 57.3399 52.481 57.1861C52.3211 57.0303 52.1007 56.9524 51.8198 56.9524H51.5154V58.7207H51.8198Z" fill="black"/>
<defs>
<filter id="filter0_d_4696_39625" x="42.6421" y="56.4096" width="2.75289" height="3.30245" filterUnits="userSpaceOnUse" color-interpolation-filters="sRGB">
<feFlood flood-opacity="0" result="BackgroundImageFix"/>
<feColorMatrix in="SourceAlpha" type="matrix" values="0 0 0 0 0 0 0 0 0 0 0 0 0 0 0 0 0 0 127 0" result="hardAlpha"/>
<feOffset dy="0.0970412"/>
<feGaussianBlur stdDeviation="0.194082"/>
<feComposite in2="hardAlpha" operator="out"/>
<feColorMatrix type="matrix" values="0 0 0 0 0.290196 0 0 0 0 0.290196 0 0 0 0 0.886275 0 0 0 0.4 0"/>
<feBlend mode="normal" in2="BackgroundImageFix" result="effect1_dropShadow_4696_39625"/>
<feBlend mode="normal" in="SourceGraphic" in2="effect1_dropShadow_4696_39625" result="shape"/>
</filter>
</defs>
</svg>
