<svg width="80" height="80" viewBox="0 0 80 80" fill="none" xmlns="http://www.w3.org/2000/svg">
<path d="M79.0361 40C79.0361 61.5591 61.5591 79.0361 40 79.0361C18.4409 79.0361 0.963855 61.5591 0.963855 40C0.963855 18.4409 18.4409 0.963855 40 0.963855C61.5591 0.963855 79.0361 18.4409 79.0361 40Z" fill="#262C3D"/>
<path d="M79.0361 40C79.0361 61.5591 61.5591 79.0361 40 79.0361C18.4409 79.0361 0.963855 61.5591 0.963855 40C0.963855 18.4409 18.4409 0.963855 40 0.963855C61.5591 0.963855 79.0361 18.4409 79.0361 40Z" stroke="white" stroke-width="1.92771"/>
<path d="M79.0361 40C79.0361 61.5591 61.5591 79.0361 40 79.0361C18.4409 79.0361 0.963855 61.5591 0.963855 40C0.963855 18.4409 18.4409 0.963855 40 0.963855C61.5591 0.963855 79.0361 18.4409 79.0361 40Z" stroke="url(#paint0_radial_4760_39896)" stroke-width="1.92771"/>
<path d="M79.0361 40C79.0361 61.5591 61.5591 79.0361 40 79.0361C18.4409 79.0361 0.963855 61.5591 0.963855 40C0.963855 18.4409 18.4409 0.963855 40 0.963855C61.5591 0.963855 79.0361 18.4409 79.0361 40Z" stroke="url(#paint1_radial_4760_39896)" stroke-width="1.92771"/>
<path d="M39.5185 78.0724C60.8114 78.0724 78.0728 59.9912 78.0728 37.6869C78.0728 37.6869 66.2496 28.5264 57.6344 28.9286C50.0902 29.2808 39.983 37.2004 39.983 37.2004C39.983 37.2004 31.0929 44.8861 24.1897 45.9587C14.7134 47.431 1.92816 37.1085 1.92816 37.1085C0.963914 61.2049 18.2256 78.0724 39.5185 78.0724Z" fill="#03DACD"/>
<path d="M40.0006 78.0692C18.7077 78.0692 0.96389 61.6868 1.92826 37.1998C1.92826 37.1998 12.7876 28.5264 21.4028 28.9286C28.947 29.2808 39.0542 37.1998 39.0542 37.1998C39.0542 37.1998 47.9443 44.885 54.8475 45.9575C64.3238 47.4298 78.0729 38.0724 78.0729 38.0724C79.0366 60.241 61.2935 78.0692 40.0006 78.0692Z" fill="#20BBBB"/>
<path d="M39.9996 78.0692C18.7067 78.0692 0.962914 61.6868 1.92728 37.1998C1.92728 37.1998 12.7867 28.5264 21.4019 28.9286C28.946 29.2808 39.0532 37.1998 39.0532 37.1998C39.0532 37.1998 47.9433 44.885 54.8465 45.9575C64.3228 47.4298 78.0719 38.0724 78.0719 38.0724C79.0356 60.241 61.2925 78.0692 39.9996 78.0692Z" fill="url(#paint2_linear_4760_39896)"/>
<defs>
<radialGradient id="paint0_radial_4760_39896" cx="0" cy="0" r="1" gradientUnits="userSpaceOnUse" gradientTransform="translate(40 40) rotate(-179.37) scale(43.8581 204.216)">
<stop stop-color="#03CDC1" stop-opacity="0.5"/>
<stop offset="1" stop-color="white" stop-opacity="0"/>
</radialGradient>
<radialGradient id="paint1_radial_4760_39896" cx="0" cy="0" r="1" gradientUnits="userSpaceOnUse" gradientTransform="translate(80 26.9879) rotate(127.036) scale(66.4099 356.878)">
<stop stop-color="white" stop-opacity="0.66"/>
<stop offset="1" stop-color="white" stop-opacity="0"/>
</radialGradient>
<linearGradient id="paint2_linear_4760_39896" x1="77.9995" y1="44.5" x2="-3.00049" y2="48" gradientUnits="userSpaceOnUse">
<stop stop-color="#20BBBB"/>
<stop offset="1" stop-color="#03DACD"/>
</linearGradient>
</defs>
</svg>
