<svg width="81" height="70" viewBox="0 0 81 70" fill="none" xmlns="http://www.w3.org/2000/svg">
<circle cx="32.2086" cy="51.2057" r="18.0787" fill="url(#paint0_linear_4682_39610)"/>
<path d="M6 14.238C8.85409 15.8916 52.971 33.7812 74.6728 42.5192" stroke="url(#paint1_linear_4682_39610)" stroke-width="12" stroke-linecap="round"/>
<path d="M38.3545 11.3606C39.1284 11.6524 39.7183 12.0837 40.1243 12.6546C40.5303 13.2128 40.7333 13.9106 40.7333 14.748C40.7333 15.6107 40.5112 16.3528 40.0672 16.9745C39.6359 17.5835 39.0459 18.0529 38.2974 18.3827C37.5616 18.6999 36.7433 18.8585 35.8425 18.8585C34.688 18.8585 33.6794 18.5857 32.8167 18.0402C31.9667 17.4947 31.364 16.7017 31.0088 15.6614L33.1973 14.4054C33.4003 15.0651 33.7365 15.5663 34.2059 15.9088C34.6753 16.2387 35.2018 16.4036 35.7854 16.4036C36.3563 16.4036 36.8321 16.2387 37.2127 15.9088C37.606 15.5789 37.8026 15.1222 37.8026 14.5386C37.8026 13.2573 36.8257 12.6166 34.8719 12.6166H34.3581V10.3329H35.1003C35.8235 10.3329 36.3753 10.1617 36.7559 9.81912C37.1492 9.46389 37.3459 9.0262 37.3459 8.50604C37.3459 8.02394 37.1873 7.63699 36.8701 7.34519C36.553 7.05339 36.1406 6.90749 35.6332 6.90749C35.0876 6.90749 34.6119 7.08511 34.2059 7.44034C33.8126 7.78289 33.5081 8.27767 33.2924 8.9247L31.1991 7.7258C31.529 6.6601 32.1062 5.84814 32.9309 5.28992C33.7555 4.71902 34.7324 4.43356 35.8615 4.43356C36.7369 4.43356 37.5045 4.59849 38.1642 4.92835C38.8366 5.24552 39.3567 5.6959 39.7247 6.2795C40.0926 6.86309 40.2765 7.53549 40.2765 8.2967C40.2765 9.00717 40.1116 9.62248 39.7818 10.1426C39.4646 10.6628 38.9888 11.0688 38.3545 11.3606ZM52.3719 11.6651C52.3719 14.0121 51.9469 15.801 51.0969 17.0316C50.2468 18.2495 49.0353 18.8585 47.4621 18.8585C45.8889 18.8585 44.671 18.2495 43.8083 17.0316C42.9583 15.801 42.5333 14.0121 42.5333 11.6651C42.5333 9.30531 42.9583 7.51012 43.8083 6.2795C44.671 5.04887 45.8889 4.43356 47.4621 4.43356C49.0353 4.43356 50.2468 5.04887 51.0969 6.2795C51.9469 7.51012 52.3719 9.30531 52.3719 11.6651ZM45.4639 11.6651C45.4639 13.2382 45.6225 14.4118 45.9397 15.1857C46.2695 15.9469 46.777 16.3275 47.4621 16.3275C48.1472 16.3275 48.6483 15.9469 48.9655 15.1857C49.2827 14.4118 49.4412 13.2382 49.4412 11.6651C49.4412 10.0792 49.2827 8.89933 48.9655 8.12543C48.6483 7.35153 48.1472 6.96459 47.4621 6.96459C46.777 6.96459 46.2695 7.35153 45.9397 8.12543C45.6225 8.88664 45.4639 10.0665 45.4639 11.6651ZM58.3395 11.7031L60.4328 8.77246H63.3254L59.7097 13.6442L63.3254 18.6301H60.2996L58.2253 15.6804L56.1701 18.6301H53.2394L56.8552 13.7584L53.2394 8.77246H56.3033L58.3395 11.7031Z" fill="#20BBBB"/>
<defs>
<linearGradient id="paint0_linear_4682_39610" x1="51.409" y1="51.2057" x2="8.78544" y2="51.2057" gradientUnits="userSpaceOnUse">
<stop stop-color="#03CDC1"/>
<stop offset="1" stop-color="#8AB9FF"/>
</linearGradient>
<linearGradient id="paint1_linear_4682_39610" x1="71.2876" y1="20.8179" x2="2.57802" y2="37.6022" gradientUnits="userSpaceOnUse">
<stop stop-color="#03CDC1"/>
<stop offset="1" stop-color="#8AB9FF"/>
</linearGradient>
</defs>
</svg>
