<svg width="16" height="21" viewBox="0 0 16 21" fill="none" xmlns="http://www.w3.org/2000/svg">
<path d="M2.53929 20.2222H9.65671C10.477 20.2222 11.1016 20.0077 11.5306 19.5788C11.9595 19.1499 12.1739 18.5172 12.1739 17.6808V11.8261H6.71324C6.2307 11.8261 5.8688 11.7054 5.62753 11.4642C5.38626 11.2175 5.26562 10.8529 5.26562 10.3704V4.73277H2.53929C1.71898 4.73277 1.09436 4.94723 0.665441 5.37615C0.236519 5.80507 0.0220584 6.43773 0.0220584 7.27413V17.6808C0.0220584 18.5172 0.236519 19.1499 0.665441 19.5788C1.09436 20.0077 1.71898 20.2222 2.53929 20.2222ZM6.82583 10.676H12.0292C11.9863 10.5098 11.9112 10.3436 11.804 10.1774C11.7021 10.0112 11.5627 9.83961 11.3858 9.66268L7.40487 5.62546C7.22794 5.44317 7.05905 5.29573 6.89821 5.18313C6.73736 5.06518 6.57384 4.9794 6.40763 4.92578V10.2578C6.40763 10.5366 6.54703 10.676 6.82583 10.676ZM13.3159 16.2815H13.525C13.8843 16.2815 14.2113 16.2279 14.5062 16.1206C14.8064 16.0188 15.0638 15.8633 15.2783 15.6542C15.4981 15.4451 15.667 15.1824 15.7849 14.866C15.9029 14.5497 15.9619 14.1717 15.9619 13.7321V6.57445H11.6753C11.2947 6.57445 10.989 6.46186 10.7585 6.23667C10.5333 6.01149 10.4207 5.70856 10.4207 5.32789V0.784007H6.32721C5.51762 0.784007 4.89568 0.998468 4.4614 1.42739C4.03248 1.85095 3.81801 2.46216 3.81801 3.26103V3.59076H5.01631C5.63289 3.59076 6.17172 3.67387 6.63281 3.84007C7.09926 4.00628 7.54427 4.30116 7.96783 4.72472L12.2785 9.03539C12.6913 9.44822 12.9674 9.89859 13.1068 10.3865C13.2462 10.869 13.3159 11.4025 13.3159 11.9869V16.2815ZM11.9085 5.52091H15.8332C15.8171 5.39223 15.7608 5.26356 15.6643 5.13488C15.5731 5.0062 15.4552 4.86412 15.3104 4.70864L12.2785 1.59628C12.1337 1.45152 11.997 1.33356 11.8683 1.24242C11.7397 1.15127 11.611 1.09766 11.4823 1.08157V5.09467C11.4823 5.37883 11.6244 5.52091 11.9085 5.52091Z" fill="url(#paint0_linear_6462_26061)"/>
<defs>
<linearGradient id="paint0_linear_6462_26061" x1="18.6204" y1="10" x2="-4.9562" y2="10" gradientUnits="userSpaceOnUse">
<stop stop-color="#03CDC1"/>
<stop offset="1" stop-color="#8AB9FF"/>
</linearGradient>
</defs>
</svg>
