<svg width="322" height="178" viewBox="0 0 322 178" fill="none" xmlns="http://www.w3.org/2000/svg">
<path fill-rule="evenodd" clip-rule="evenodd" d="M0 153.607L12.1328 143.17L75.1834 88.9362L12.1328 34.702L0 24.2657L20.8726 0L33.0055 10.4363L109.536 76.2657C117.288 82.9339 117.289 94.9383 109.536 101.607L33.0055 167.436L20.8726 177.872L0 153.607ZM321.997 24.2657L309.864 34.702L246.814 88.9362L309.864 143.17L321.997 153.607L301.124 177.872L288.991 167.436L212.461 101.607C204.709 94.9385 204.708 82.9341 212.461 76.2657L288.991 10.4363L301.124 3.62396e-05L321.997 24.2657ZM176.984 22.0912V6.08741H144.976V22.0912V156.434V172.438H176.984V156.434V22.0912Z" fill="url(#paint0_linear_7818_60668)"/>
<defs>
<linearGradient id="paint0_linear_7818_60668" x1="331.986" y1="88.9362" x2="-47.5944" y2="88.9362" gradientUnits="userSpaceOnUse">
<stop stop-color="#03CDC1"/>
<stop offset="1" stop-color="#8AB9FF"/>
</linearGradient>
</defs>
</svg>
