<svg width="37" height="40" viewBox="0 0 37 40" fill="none" xmlns="http://www.w3.org/2000/svg">
<path d="M35.0648 27.3687L32.8305 34.9231L28.4443 33.7236L35.0648 27.3687Z" fill="#E4761B" stroke="#E4761B" stroke-width="0.0915696"/>
<path d="M28.4443 33.7236L32.6748 27.9272L35.0648 27.3687L28.4443 33.7236Z" fill="#E4761B" stroke="#E4761B" stroke-width="0.0915696"/>
<path d="M31.7773 21.6731L35.0647 27.3687L32.6747 27.9273L31.7773 21.6731ZM31.7773 21.6731L33.8926 20.208L35.0647 27.3687L31.7773 21.6731Z" fill="#F6851B" stroke="#F6851B" stroke-width="0.0915696"/>
<path d="M29.085 17.3691L35.1652 14.8784L34.863 16.2428L29.085 17.3691ZM34.6707 17.8819L29.085 17.3691L34.863 16.2428L34.6707 17.8819Z" fill="#763D16" stroke="#763D16" stroke-width="0.0915696"/>
<path d="M34.6707 17.8819L33.8924 20.2078L29.085 17.3691L34.6707 17.8819ZM35.8886 15.4553L34.863 16.2428L35.1652 14.8784L35.8886 15.4553ZM34.6707 17.8819L34.863 16.2428L35.678 16.9204L34.6707 17.8819Z" fill="#763D16" stroke="#763D16" stroke-width="0.0915696"/>
<path d="M23.7295 31.8833L25.2495 32.3686L28.4453 33.7238L23.7295 31.8833Z" fill="#E2761B" stroke="#E2761B" stroke-width="0.0915696"/>
<path d="M33.8922 20.2078L34.6705 17.8819L35.339 18.3947L33.8922 20.2078ZM33.8922 20.2078L27.583 18.1292L29.0847 17.3691L33.8922 20.2078Z" fill="#763D16" stroke="#763D16" stroke-width="0.0915696"/>
<path d="M30.5865 10.2358L29.0847 17.3691L27.583 18.1291L30.5865 10.2358Z" fill="#763D16" stroke="#763D16" stroke-width="0.0915696"/>
<path d="M35.1652 14.8784L29.085 17.3691L30.5867 10.2358L35.1652 14.8784Z" fill="#763D16" stroke="#763D16" stroke-width="0.0915696"/>
<path d="M30.5879 10.236L36.9337 9.50342L35.1664 14.8786L30.5879 10.236Z" fill="#763D16" stroke="#763D16" stroke-width="0.0915696"/>
<path d="M33.8922 20.208L31.7769 21.6731L27.583 18.1294L33.8922 20.208Z" fill="#F6851B" stroke="#F6851B" stroke-width="0.0915696"/>
<path d="M36.659 4.36621L36.9337 9.50326L30.5879 10.2358L36.659 4.36621Z" fill="#763D16" stroke="#763D16" stroke-width="0.0915696"/>
<path d="M36.6587 4.36621L23.9763 13.5873L23.8115 7.33307L36.6587 4.36621Z" fill="#E2761B" stroke="#E2761B" stroke-width="0.0915696"/>
<path d="M14.3789 6.58203L23.8106 7.3329L23.9754 13.5871L14.3789 6.58203Z" fill="#F6851B" stroke="#F6851B" stroke-width="0.0915696"/>
<path d="M27.5844 18.1291L23.9766 13.5873L30.5879 10.2358L27.5844 18.1291Z" fill="#763D16" stroke="#763D16" stroke-width="0.0915696"/>
<path d="M27.5837 18.1294L31.7776 21.6731L25.8896 22.3233L27.5837 18.1294Z" fill="#E4761B" stroke="#E4761B" stroke-width="0.0915696"/>
<path d="M25.8904 22.3231L23.9766 13.5874L27.5844 18.1293L25.8904 22.3231Z" fill="#E4761B" stroke="#E4761B" stroke-width="0.0915696"/>
<path d="M30.5879 10.2358L23.9766 13.5873L36.6589 4.36621L30.5879 10.2358Z" fill="#763D16" stroke="#763D16" stroke-width="0.0915696"/>
<path d="M14.4614 33.5773L17.4557 36.6998L13.3809 32.9912L14.4614 33.5773Z" fill="#C0AD9E" stroke="#C0AD9E" stroke-width="0.0915696"/>
<path d="M28.4443 33.7231L29.8637 28.3297L32.6748 27.9268L28.4443 33.7231Z" fill="#CD6116" stroke="#CD6116" stroke-width="0.0915696"/>
<path d="M2.32031 18.5509L7.50315 13.1025L2.98877 17.9008L2.32031 18.5509Z" fill="#E2761B" stroke="#E2761B" stroke-width="0.0915696"/>
<path d="M32.6745 27.9269L29.8633 28.3298L31.7771 21.6727L32.6745 27.9269ZM23.9754 13.5871L18.9299 13.4223L14.3789 6.58203L23.9754 13.5871Z" fill="#F6851B" stroke="#F6851B" stroke-width="0.0915696"/>
<path d="M31.7775 21.6729L29.8637 28.33L29.708 25.0792L31.7775 21.6729Z" fill="#E4751F" stroke="#E4751F" stroke-width="0.0915696"/>
<path d="M25.8896 22.323L31.7776 21.6729L29.7081 25.0792L25.8896 22.323Z" fill="#CD6116" stroke="#CD6116" stroke-width="0.0915696"/>
<path d="M18.9307 13.4229L23.9761 13.5877L25.89 22.3234L18.9307 13.4229Z" fill="#F6851B" stroke="#F6851B" stroke-width="0.0915696"/>
<path d="M18.9302 13.4227L5.31381 0.822754L14.3792 6.58248L18.9302 13.4227ZM14.37 35.491L2.53925 39.1538L0.176758 30.1342L14.37 35.491Z" fill="#E4761B" stroke="#E4761B" stroke-width="0.0915696"/>
<path d="M4.07715 20.803L8.54574 17.2959L12.2909 18.1658L4.07715 20.803Z" fill="#763D16" stroke="#763D16" stroke-width="0.0915696"/>
<path d="M12.2921 18.1664L8.54688 17.2964L10.5522 9.01855L12.2921 18.1664Z" fill="#763D16" stroke="#763D16" stroke-width="0.0915696"/>
<path d="M2.98926 17.9003L8.54753 17.2959L4.07894 20.803L2.98926 17.9003Z" fill="#763D16" stroke="#763D16" stroke-width="0.0915696"/>
<path d="M29.7081 25.0795L27.4005 23.9166L25.8896 22.3232L29.7081 25.0795Z" fill="#CD6116" stroke="#CD6116" stroke-width="0.0915696"/>
<path d="M2.9875 17.9004L2.59375 15.8218L8.54577 17.296L2.9875 17.9004Z" fill="#763D16" stroke="#763D16" stroke-width="0.0915696"/>
<path d="M26.9248 26.5349L27.401 23.916L29.7085 25.0789L26.9248 26.5349Z" fill="#233447" stroke="#233447" stroke-width="0.0915696"/>
<path d="M29.8642 28.3303L26.9248 26.5355L29.7085 25.0796L29.8642 28.3303Z" fill="#F6851B" stroke="#F6851B" stroke-width="0.0915696"/>
<path d="M8.54574 17.2964L2.59372 15.8222L2.1084 14.0732L8.54574 17.2964ZM10.5511 9.01855L8.54574 17.2964L2.1084 14.0732L10.5511 9.01855ZM10.5511 9.01855L18.9297 13.4231L12.2909 18.1664L10.5511 9.01855Z" fill="#763D16" stroke="#763D16" stroke-width="0.0915696"/>
<path d="M12.292 18.1662L18.9308 13.4229L21.8885 22.4608L12.292 18.1662ZM21.8885 22.4608L12.7132 22.2685L12.292 18.1662L21.8885 22.4608Z" fill="#E4761B" stroke="#E4761B" stroke-width="0.0915696"/>
<path d="M4.07715 20.8034L12.2909 18.1662L12.7122 22.2685L4.07715 20.8034ZM25.889 22.3234L21.8874 22.4608L18.9297 13.4229L25.889 22.3234Z" fill="#F6851B" stroke="#F6851B" stroke-width="0.0915696"/>
<path d="M27.4005 23.9166L26.9244 26.5354L25.8896 22.3232L27.4005 23.9166Z" fill="#CD6116" stroke="#CD6116" stroke-width="0.0915696"/>
<path d="M5.31348 0.822754L18.9299 13.4227L10.5513 9.01823L5.31348 0.822754Z" fill="#763D16" stroke="#763D16" stroke-width="0.0915696"/>
<path d="M0.176758 30.1339L11.6596 29.6577L14.37 35.4907L0.176758 30.1339Z" fill="#E4761B" stroke="#E4761B" stroke-width="0.0915696"/>
<path d="M14.3706 35.491L11.6602 29.658L17.3008 29.3833L14.3706 35.491Z" fill="#CD6116" stroke="#CD6116" stroke-width="0.0915696"/>
<path d="M26.9242 26.5355L29.8636 28.3302L31.4844 32.1487L26.9242 26.5355ZM12.7126 22.2683L0.176758 30.1342L4.07762 20.8032L12.7126 22.2683ZM11.6596 29.658L0.176758 30.1342L12.7126 22.2683L11.6596 29.658ZM25.8895 22.3233L26.6404 25.0521L23.0142 25.2627L25.8895 22.3233ZM23.0142 25.2627L21.8879 22.4606L25.8895 22.3233L23.0142 25.2627Z" fill="#F6851B" stroke="#F6851B" stroke-width="0.0915696"/>
<path d="M17.457 36.6994L14.3711 35.4907L25.103 37.2946L17.457 36.6994Z" fill="#C0AD9E" stroke="#C0AD9E" stroke-width="0.0915696"/>
<path d="M4.07845 20.8027L2.32031 18.55L2.98877 17.8999L4.07845 20.8027Z" fill="#763D16" stroke="#763D16" stroke-width="0.0915696"/>
<path d="M26.3209 35.9577L25.103 37.2946L14.3711 35.4907L26.3209 35.9577Z" fill="#D7C1B3" stroke="#D7C1B3" stroke-width="0.0915696"/>
<path d="M26.8978 32.6798L14.3711 35.491L17.3013 29.3833L26.8978 32.6798Z" fill="#E4761B" stroke="#E4761B" stroke-width="0.0915696"/>
<path d="M14.3711 35.4909L26.8978 32.6797L26.3209 35.9579L14.3711 35.4909Z" fill="#D7C1B3" stroke="#D7C1B3" stroke-width="0.0915696"/>
<path d="M2.10933 14.073L1.69727 7.03125L10.552 9.01831L2.10933 14.073ZM2.9884 17.9006L1.77052 16.6644L2.59465 15.8219L2.9884 17.9006Z" fill="#763D16" stroke="#763D16" stroke-width="0.0915696"/>
<path d="M19.8369 24.274L21.8881 22.4609L21.595 26.8929L19.8369 24.274Z" fill="#CD6116" stroke="#CD6116" stroke-width="0.0915696"/>
<path d="M21.8879 22.4609L19.8367 24.274L16.8516 25.8215L21.8879 22.4609Z" fill="#CD6116" stroke="#CD6116" stroke-width="0.0915696"/>
<path d="M31.485 32.1489L30.9264 31.7368L26.9248 26.5356L31.485 32.1489Z" fill="#F6851B" stroke="#F6851B" stroke-width="0.0915696"/>
<path d="M16.8518 25.821L12.7129 22.2681L21.8882 22.4604L16.8518 25.821Z" fill="#CD6116" stroke="#CD6116" stroke-width="0.0915696"/>
<path d="M21.5957 26.8929L21.8887 22.4609L23.015 25.263L21.5957 26.8929Z" fill="#E4751F" stroke="#E4751F" stroke-width="0.0915696"/>
<path d="M1.36719 14.7692L2.1089 14.0732L2.59422 15.8222L1.36719 14.7692Z" fill="#763D16" stroke="#763D16" stroke-width="0.0915696"/>
<path d="M21.5949 26.8923L16.8516 25.821L19.8367 24.2734L21.5949 26.8923Z" fill="#233447" stroke="#233447" stroke-width="0.0915696"/>
<path d="M10.552 9.01823L1.69727 7.03117L5.31426 0.822754L10.552 9.01823Z" fill="#763D16" stroke="#763D16" stroke-width="0.0915696"/>
<path d="M25.1021 37.2949L25.6057 38.6685L17.4561 36.6997L25.1021 37.2949Z" fill="#C0AD9E" stroke="#C0AD9E" stroke-width="0.0915696"/>
<path d="M17.3003 29.3833L16.8516 25.8213L21.5949 26.8927L17.3003 29.3833Z" fill="#F6851B" stroke="#F6851B" stroke-width="0.0915696"/>
<path d="M12.7129 22.2681L16.8518 25.821L17.3005 29.383L12.7129 22.2681Z" fill="#E4751F" stroke="#E4751F" stroke-width="0.0915696"/>
<path d="M23.0148 25.2624L26.6409 25.0518L30.9264 31.7364L23.0148 25.2624ZM12.7132 22.2681L17.3008 29.383L11.6602 29.6577L12.7132 22.2681Z" fill="#F6851B" stroke="#F6851B" stroke-width="0.0915696"/>
<path d="M23.015 25.2622L27.5203 32.1208L21.5957 26.8921L23.015 25.2622Z" fill="#E4751F" stroke="#E4751F" stroke-width="0.0915696"/>
<path d="M21.5957 26.8926L27.5203 32.1212L26.8976 32.6798L21.5957 26.8926Z" fill="#F6851B" stroke="#F6851B" stroke-width="0.0915696"/>
<path d="M26.8963 32.6793L17.2998 29.3828L21.5944 26.8921L26.8963 32.6793ZM30.9254 31.7362L27.519 32.1208L23.0137 25.2622L30.9254 31.7362Z" fill="#F6851B" stroke="#F6851B" stroke-width="0.0915696"/>
<path d="M31.8237 34.96L30.3586 37.8993L25.6062 38.6685L31.8237 34.96ZM25.6062 38.6685L25.1025 37.295L26.3204 35.9581L25.6062 38.6685Z" fill="#C0AD9E" stroke="#C0AD9E" stroke-width="0.0915696"/>
<path d="M26.3207 35.9581L27.2181 35.6009L25.6064 38.6685L26.3207 35.9581ZM25.6064 38.6685L27.2181 35.6009L31.824 34.96L25.6064 38.6685Z" fill="#C0AD9E" stroke="#C0AD9E" stroke-width="0.0915696"/>
<path d="M30.9254 31.7368L32.0517 32.4236L28.627 32.8357L30.9254 31.7368Z" fill="#161616" stroke="#161616" stroke-width="0.0915696"/>
<path d="M28.6285 32.8357L27.5205 32.1214L30.9269 31.7368L28.6285 32.8357ZM28.2347 33.3759L32.4012 32.8723L31.8243 34.9601L28.2347 33.3759Z" fill="#161616" stroke="#161616" stroke-width="0.0915696"/>
<path d="M31.8227 34.9602L27.2167 35.6012L28.2331 33.3761L31.8227 34.9602ZM27.2167 35.6012L26.3193 35.9583L26.8962 32.6802L27.2167 35.6012ZM26.8962 32.6802L27.5189 32.1216L28.6269 32.8358L26.8962 32.6802ZM32.0516 32.4238L32.3996 32.8725L28.2331 33.3761L32.0516 32.4238Z" fill="#161616" stroke="#161616" stroke-width="0.0915696"/>
<path d="M28.2334 33.3757L28.6271 32.8354L32.0519 32.4233L28.2334 33.3757ZM26.8965 32.6797L28.2334 33.3757L27.217 35.6008L26.8965 32.6797Z" fill="#161616" stroke="#161616" stroke-width="0.0915696"/>
<path d="M28.6271 32.8354L28.2334 33.3756L26.8965 32.6797L28.6271 32.8354Z" fill="#161616" stroke="#161616" stroke-width="0.0915696"/>
</svg>
