<svg width="20" height="25" viewBox="0 0 20 25" fill="none" xmlns="http://www.w3.org/2000/svg">
<path fill-rule="evenodd" clip-rule="evenodd" d="M0 6.31574C0 4.612 1.0792 3.09524 2.68881 2.53675L8.68881 0.454942C9.5381 0.160264 10.4619 0.160264 11.3112 0.454942L17.3112 2.53675C18.9208 3.09524 20 4.612 20 6.31575V13.7928C20 19.4135 15.8604 24.1759 10.2944 24.9586V24.9586C10.0991 24.9861 9.90091 24.9861 9.70561 24.9586V24.9586C4.1396 24.1759 0 19.4135 0 13.7928V6.31574Z" fill="#03CDC1"/>
<g filter="url(#filter0_d_7119_29469)">
<path fill-rule="evenodd" clip-rule="evenodd" d="M15.6408 17.0463C16.1659 15.8603 16.4284 14.484 16.4284 12.9172V12.0277C16.4213 10.4683 16.1517 9.10294 15.6195 7.93156C15.0874 6.75286 14.3317 5.85236 13.3525 5.23007C12.3804 4.60045 11.2629 4.28564 9.99986 4.28564C8.73685 4.28564 7.61575 4.60411 6.63657 5.24105C5.66448 5.87066 4.9088 6.78214 4.36954 7.97548C3.83737 9.16882 3.57129 10.5452 3.57129 12.1046V13.0051C3.57838 14.5352 3.84802 15.8859 4.38018 17.0573C4.91944 18.2287 5.67867 19.1329 6.65785 19.7698C7.64414 20.3994 8.76523 20.7142 10.0211 20.7142C11.2913 20.7142 12.4123 20.3994 13.3844 19.7698C14.3636 19.1329 15.1158 18.225 15.6408 17.0463ZM13.6795 14.1428C13.5615 15.3523 13.2574 16.3129 12.7671 17.0244C12.1285 17.9615 11.2132 18.43 10.0211 18.43C8.84328 18.43 7.92086 17.9505 7.25388 16.9914C6.75651 16.2686 6.44657 15.319 6.32408 14.1428H13.6795ZM13.7239 11.5142C13.6601 10.0178 13.3376 8.8492 12.7565 8.00843C12.1108 7.06401 11.1919 6.59179 9.99986 6.59179C8.83619 6.59179 7.92441 7.06401 7.26452 8.00843C6.67386 8.85635 6.34461 10.0249 6.27678 11.5142H13.7239Z" fill="white"/>
</g>
<defs>
<filter id="filter0_d_7119_29469" x="0.714146" y="2.14279" width="18.5717" height="22.1428" filterUnits="userSpaceOnUse" color-interpolation-filters="sRGB">
<feFlood flood-opacity="0" result="BackgroundImageFix"/>
<feColorMatrix in="SourceAlpha" type="matrix" values="0 0 0 0 0 0 0 0 0 0 0 0 0 0 0 0 0 0 127 0" result="hardAlpha"/>
<feOffset dy="0.714286"/>
<feGaussianBlur stdDeviation="1.42857"/>
<feComposite in2="hardAlpha" operator="out"/>
<feColorMatrix type="matrix" values="0 0 0 0 0.290196 0 0 0 0 0.290196 0 0 0 0 0.886275 0 0 0 0.4 0"/>
<feBlend mode="normal" in2="BackgroundImageFix" result="effect1_dropShadow_7119_29469"/>
<feBlend mode="normal" in="SourceGraphic" in2="effect1_dropShadow_7119_29469" result="shape"/>
</filter>
</defs>
</svg>
