<svg width="60" height="60" viewBox="0 0 60 60" fill="none" xmlns="http://www.w3.org/2000/svg">
<path d="M30 0C24.0666 0 18.2664 1.75947 13.3329 5.05591C8.39943 8.35235 4.55426 13.0377 2.28363 18.5195C0.0129984 24.0013 -0.581101 30.0333 0.576455 35.8527C1.73401 41.6721 4.59123 47.0176 8.78681 51.2132C12.9824 55.4088 18.3279 58.266 24.1473 59.4235C29.9667 60.5811 35.9987 59.987 41.4805 57.7164C46.9623 55.4457 51.6476 51.6006 54.9441 46.6671C58.2405 41.7336 60 35.9334 60 30C60 22.0435 56.8393 14.4129 51.2132 8.78679C45.5871 3.1607 37.9565 0 30 0ZM30 56.25C24.8082 56.25 19.7331 54.7105 15.4163 51.8261C11.0995 48.9417 7.73497 44.842 5.74817 40.0454C3.76137 35.2489 3.24154 29.9709 4.2544 24.8789C5.26726 19.7869 7.76733 15.1096 11.4385 11.4384C15.1096 7.76732 19.7869 5.26725 24.8789 4.25439C29.9709 3.24152 35.2489 3.76136 40.0454 5.74816C44.842 7.73496 48.9417 11.0995 51.8261 15.4163C54.7105 19.7331 56.25 24.8082 56.25 30C56.25 36.9619 53.4844 43.6387 48.5616 48.5615C43.6387 53.4844 36.9619 56.25 30 56.25Z" fill="url(#paint0_linear_936_13465)"/>
<path d="M48.7502 18.9376C48.3989 18.5884 47.9237 18.3923 47.4284 18.3923C46.933 18.3923 46.4578 18.5884 46.1065 18.9376L25.294 39.6563L14.044 28.4063C13.7009 28.0358 13.2246 27.8168 12.72 27.7975C12.2155 27.7782 11.7238 27.9601 11.3534 28.3032C10.9829 28.6463 10.7639 29.1226 10.7446 29.6271C10.7252 30.1317 10.9071 30.6233 11.2502 30.9938L25.294 45.0001L48.7502 21.6001C48.926 21.4258 49.0655 21.2184 49.1607 20.9899C49.2559 20.7614 49.3049 20.5163 49.3049 20.2688C49.3049 20.0213 49.2559 19.7762 49.1607 19.5477C49.0655 19.3193 48.926 19.1119 48.7502 18.9376Z" fill="url(#paint1_linear_936_13465)"/>
<defs>
<linearGradient id="paint0_linear_936_13465" x1="61.8613" y1="30" x2="-8.86861" y2="30" gradientUnits="userSpaceOnUse">
<stop stop-color="#03CDC1"/>
<stop offset="1" stop-color="#8AB9FF"/>
</linearGradient>
<linearGradient id="paint1_linear_936_13465" x1="50.5011" y1="31.6962" x2="5.04335" y2="31.6962" gradientUnits="userSpaceOnUse">
<stop stop-color="#03CDC1"/>
<stop offset="1" stop-color="#8AB9FF"/>
</linearGradient>
</defs>
</svg>
