<svg width="561" height="120" viewBox="0 0 561 120" fill="none" xmlns="http://www.w3.org/2000/svg">
<path d="M6.336 33.376V23.368L22.464 14.224H30.6V67H20.016V25.744L6.336 33.376ZM73.9142 35.824L96.3062 67H82.8422L66.4262 43.816L59.2262 51.52V67H48.7862V14.296H59.2262V38.848L81.1142 14.296H94.1462L73.9142 35.824ZM146.936 14.296L128.432 40L147.8 67H134.84L122.024 48.496L109.136 67H97.0397L116.336 40.216L97.9037 14.296H110.648L122.744 31.72L134.84 14.296H146.936ZM191.243 14.296C195.419 14.296 199.067 15.016 202.187 16.456C205.307 17.896 207.707 19.936 209.387 22.576C211.115 25.168 211.979 28.216 211.979 31.72C211.979 35.176 211.115 38.224 209.387 40.864C207.707 43.456 205.307 45.472 202.187 46.912C199.067 48.304 195.419 49 191.243 49H183.539V67H173.099V14.296H191.243ZM190.091 40.144C193.355 40.144 195.971 39.448 197.939 38.056C199.907 36.616 200.891 34.504 200.891 31.72C200.891 28.936 199.907 26.824 197.939 25.384C195.971 23.896 193.355 23.152 190.091 23.152H183.539V40.144H190.091ZM262.718 67L250.262 66.928L237.446 47.992H237.014H229.382V67H218.942V14.296H237.158C241.286 14.296 244.91 14.992 248.03 16.384C251.15 17.776 253.55 19.768 255.23 22.36C256.91 24.904 257.75 27.832 257.75 31.144C257.75 34.504 256.886 37.456 255.158 40C253.43 42.544 251.006 44.488 247.886 45.832L262.718 67ZM229.382 23.152V39.136H235.934C239.006 39.136 241.55 38.488 243.566 37.192C245.63 35.848 246.662 33.832 246.662 31.144C246.662 28.408 245.654 26.392 243.638 25.096C241.622 23.8 239.054 23.152 235.934 23.152H229.382ZM264.938 40.576C264.938 35.056 266.042 30.232 268.25 26.104C270.458 21.976 273.458 18.832 277.25 16.672C281.09 14.464 285.362 13.36 290.066 13.36C294.77 13.36 299.018 14.464 302.81 16.672C306.65 18.832 309.674 21.976 311.882 26.104C314.138 30.232 315.266 35.056 315.266 40.576C315.266 46.144 314.138 50.992 311.882 55.12C309.674 59.248 306.65 62.416 302.81 64.624C299.018 66.784 294.77 67.864 290.066 67.864C285.362 67.864 281.09 66.784 277.25 64.624C273.458 62.416 270.458 59.248 268.25 55.12C266.042 50.992 264.938 46.144 264.938 40.576ZM275.954 40.576C275.954 44.08 276.53 47.176 277.682 49.864C278.882 52.552 280.538 54.64 282.65 56.128C284.81 57.568 287.282 58.288 290.066 58.288C292.85 58.288 295.298 57.568 297.41 56.128C299.57 54.64 301.226 52.552 302.378 49.864C303.578 47.176 304.178 44.08 304.178 40.576C304.178 37.072 303.578 34 302.378 31.36C301.226 28.672 299.57 26.608 297.41 25.168C295.298 23.68 292.85 22.936 290.066 22.936C287.282 22.936 284.81 23.68 282.65 25.168C280.538 26.608 278.882 28.672 277.682 31.36C276.53 34 275.954 37.072 275.954 40.576ZM316.771 14.296H359.251V23.584H343.267V67H332.755V23.584H316.771V14.296ZM360.844 40.576C360.844 35.056 361.948 30.232 364.156 26.104C366.364 21.976 369.364 18.832 373.156 16.672C376.996 14.464 381.268 13.36 385.972 13.36C390.676 13.36 394.924 14.464 398.716 16.672C402.556 18.832 405.58 21.976 407.788 26.104C410.044 30.232 411.172 35.056 411.172 40.576C411.172 46.144 410.044 50.992 407.788 55.12C405.58 59.248 402.556 62.416 398.716 64.624C394.924 66.784 390.676 67.864 385.972 67.864C381.268 67.864 376.996 66.784 373.156 64.624C369.364 62.416 366.364 59.248 364.156 55.12C361.948 50.992 360.844 46.144 360.844 40.576ZM371.86 40.576C371.86 44.08 372.436 47.176 373.588 49.864C374.788 52.552 376.444 54.64 378.556 56.128C380.716 57.568 383.188 58.288 385.972 58.288C388.756 58.288 391.204 57.568 393.316 56.128C395.476 54.64 397.132 52.552 398.284 49.864C399.484 47.176 400.084 44.08 400.084 40.576C400.084 37.072 399.484 34 398.284 31.36C397.132 28.672 395.476 26.608 393.316 25.168C391.204 23.68 388.756 22.936 385.972 22.936C383.188 22.936 380.716 23.68 378.556 25.168C376.444 26.608 374.788 28.672 373.588 31.36C372.436 34 371.86 37.072 371.86 40.576ZM442.291 58.288C444.835 58.288 447.019 57.616 448.843 56.272C450.715 54.928 452.203 53.056 453.307 50.656L462.019 55.696C460.723 59.248 458.347 62.176 454.891 64.48C451.435 66.736 447.307 67.864 442.507 67.864C437.851 67.864 433.603 66.736 429.763 64.48C425.923 62.224 422.875 59.032 420.619 54.904C418.363 50.728 417.235 45.952 417.235 40.576C417.235 35.2 418.339 30.448 420.547 26.32C422.803 22.192 425.851 19 429.691 16.744C433.579 14.488 437.851 13.36 442.507 13.36C447.307 13.36 451.435 14.512 454.891 16.816C458.347 19.072 460.723 21.976 462.019 25.528L453.307 30.568C452.203 28.168 450.715 26.296 448.843 24.952C447.019 23.608 444.835 22.936 442.291 22.936C439.603 22.936 437.203 23.656 435.091 25.096C432.979 26.536 431.299 28.6 430.051 31.288C428.851 33.928 428.251 37.024 428.251 40.576C428.251 44.128 428.851 47.248 430.051 49.936C431.299 52.624 432.979 54.688 435.091 56.128C437.203 57.568 439.603 58.288 442.291 58.288ZM464.907 40.576C464.907 35.056 466.011 30.232 468.219 26.104C470.427 21.976 473.427 18.832 477.219 16.672C481.059 14.464 485.331 13.36 490.035 13.36C494.739 13.36 498.987 14.464 502.779 16.672C506.619 18.832 509.643 21.976 511.851 26.104C514.107 30.232 515.235 35.056 515.235 40.576C515.235 46.144 514.107 50.992 511.851 55.12C509.643 59.248 506.619 62.416 502.779 64.624C498.987 66.784 494.739 67.864 490.035 67.864C485.331 67.864 481.059 66.784 477.219 64.624C473.427 62.416 470.427 59.248 468.219 55.12C466.011 50.992 464.907 46.144 464.907 40.576ZM475.923 40.576C475.923 44.08 476.499 47.176 477.651 49.864C478.851 52.552 480.507 54.64 482.619 56.128C484.779 57.568 487.251 58.288 490.035 58.288C492.819 58.288 495.267 57.568 497.379 56.128C499.539 54.64 501.195 52.552 502.347 49.864C503.547 47.176 504.147 44.08 504.147 40.576C504.147 37.072 503.547 34 502.347 31.36C501.195 28.672 499.539 26.608 497.379 25.168C495.267 23.68 492.819 22.936 490.035 22.936C487.251 22.936 484.779 23.68 482.619 25.168C480.507 26.608 478.851 28.672 477.651 31.36C476.499 34 475.923 37.072 475.923 40.576ZM523.817 14.296H534.257V57.64H558.233V67H523.817V14.296Z" fill="black"/>
<path d="M15.54 107.232C15.54 108.483 15.232 109.565 14.616 110.48C14.0187 111.395 13.1787 112.095 12.096 112.58C11.032 113.065 9.8 113.308 8.4 113.308C6.44 113.308 4.732 112.851 3.276 111.936C1.82 111.003 0.858667 109.761 0.392 108.212L2.828 106.812C3.31333 108.007 4.032 108.931 4.984 109.584C5.936 110.237 7.10267 110.564 8.484 110.564C9.716 110.564 10.668 110.303 11.34 109.78C12.0307 109.239 12.376 108.492 12.376 107.54C12.376 106.775 12.152 106.149 11.704 105.664C11.2747 105.16 10.7333 104.777 10.08 104.516C9.42667 104.236 8.54 103.928 7.42 103.592C6.05733 103.181 4.97467 102.799 4.172 102.444C3.36933 102.071 2.67867 101.529 2.1 100.82C1.54 100.092 1.26 99.14 1.26 97.964C1.26 96.732 1.57733 95.6773 2.212 94.8C2.84667 93.9227 3.696 93.2693 4.76 92.84C5.84267 92.392 7.04667 92.168 8.372 92.168C10.2013 92.168 11.704 92.5693 12.88 93.372C14.056 94.1747 14.84 95.22 15.232 96.508L12.796 97.936C11.956 95.9013 10.444 94.884 8.26 94.884C7.10267 94.884 6.16933 95.1453 5.46 95.668C4.76933 96.172 4.424 96.8627 4.424 97.74C4.424 98.3933 4.62 98.9253 5.012 99.336C5.42267 99.7467 5.92667 100.083 6.524 100.344C7.14 100.587 7.97067 100.857 9.016 101.156C10.3973 101.567 11.5173 101.968 12.376 102.36C13.2533 102.752 14 103.34 14.616 104.124C15.232 104.908 15.54 105.944 15.54 107.232ZM28.5908 98.468L32.1468 108.772L35.4508 98.468H38.1948L33.0148 113H31.0548L27.3588 102.948L23.8308 113H21.8428L16.4388 98.468H19.4348L22.9908 108.828L26.2668 98.468H28.5908ZM45.7104 98.132C47.4464 98.132 48.8464 98.6453 49.9104 99.672C50.9931 100.699 51.5344 102.173 51.5344 104.096V113H49.0424C49.0051 112.16 48.9584 111.563 48.9024 111.208C48.0064 112.608 46.5691 113.308 44.5904 113.308C43.6198 113.308 42.7238 113.131 41.9024 112.776C41.0998 112.421 40.4558 111.908 39.9704 111.236C39.4851 110.564 39.2424 109.752 39.2424 108.8C39.2424 107.363 39.8304 106.224 41.0064 105.384C42.1824 104.544 43.6851 104.124 45.5144 104.124C46.5411 104.124 47.5958 104.264 48.6784 104.544V104.488C48.6784 103.163 48.4171 102.192 47.8944 101.576C47.3718 100.941 46.5878 100.624 45.5424 100.624C44.7024 100.624 43.9931 100.811 43.4144 101.184C42.8544 101.539 42.3784 102.061 41.9864 102.752L39.8584 101.52C40.3251 100.493 41.0811 99.672 42.1264 99.056C43.1718 98.44 44.3664 98.132 45.7104 98.132ZM48.6784 106.728C47.5584 106.448 46.5784 106.308 45.7384 106.308C44.6184 106.308 43.7504 106.523 43.1344 106.952C42.5184 107.381 42.2104 107.979 42.2104 108.744C42.2104 109.435 42.4624 109.985 42.9664 110.396C43.4704 110.788 44.1331 110.984 44.9544 110.984C45.9811 110.984 46.8584 110.695 47.5864 110.116C48.3144 109.519 48.6784 108.697 48.6784 107.652V106.728ZM62.9237 98.132C64.0437 98.132 65.089 98.44 66.0597 99.056C67.049 99.6533 67.8423 100.531 68.4397 101.688C69.037 102.827 69.3357 104.171 69.3357 105.72C69.3357 107.288 69.037 108.651 68.4397 109.808C67.8423 110.947 67.049 111.815 66.0597 112.412C65.089 113.009 64.0437 113.308 62.9237 113.308C61.9903 113.308 61.113 113.103 60.2917 112.692C59.4703 112.281 58.7983 111.665 58.2757 110.844V119.496H55.3917V98.468H57.9397C57.977 99.4013 58.033 100.195 58.1077 100.848C58.6303 99.952 59.3117 99.28 60.1517 98.832C61.0103 98.3653 61.9343 98.132 62.9237 98.132ZM62.4197 110.676C63.6143 110.676 64.5663 110.247 65.2757 109.388C65.985 108.511 66.3397 107.288 66.3397 105.72C66.3397 104.171 65.9757 102.957 65.2477 102.08C64.5383 101.184 63.5957 100.736 62.4197 100.736C61.281 100.736 60.301 101.147 59.4797 101.968C58.677 102.789 58.2757 104.04 58.2757 105.72C58.2757 107.419 58.677 108.669 59.4797 109.472C60.301 110.275 61.281 110.676 62.4197 110.676ZM73.2565 109.64C73.8539 109.64 74.3485 109.883 74.7405 110.368C75.1325 110.835 75.3285 111.544 75.3285 112.496C75.3285 113.877 74.9459 115.025 74.1805 115.94C73.4339 116.873 72.4539 117.452 71.2405 117.676V116.108C72.6219 115.735 73.3685 114.82 73.4805 113.364C73.4432 113.383 73.3685 113.392 73.2565 113.392C72.7339 113.392 72.3045 113.215 71.9685 112.86C71.6512 112.487 71.4925 112.039 71.4925 111.516C71.4925 110.993 71.6605 110.555 71.9965 110.2C72.3325 109.827 72.7525 109.64 73.2565 109.64ZM89.2014 113H86.3174V91.692H89.2014V113ZM99.4781 98.132C100.747 98.132 101.858 98.4307 102.81 99.028C103.762 99.6067 104.499 100.409 105.022 101.436C105.545 102.444 105.806 103.583 105.806 104.852C105.806 105.281 105.759 105.795 105.666 106.392H95.4741C95.5861 107.848 96.0341 108.949 96.8181 109.696C97.6021 110.424 98.5821 110.788 99.7581 110.788C101.289 110.788 102.399 110.153 103.09 108.884L105.246 110.144C104.873 111.152 104.163 111.936 103.118 112.496C102.073 113.037 100.906 113.308 99.6181 113.308C98.2928 113.308 97.0888 113.019 96.0061 112.44C94.9234 111.843 94.0554 110.965 93.4021 109.808C92.7674 108.651 92.4501 107.269 92.4501 105.664C92.4501 104.096 92.7674 102.743 93.4021 101.604C94.0554 100.465 94.9141 99.6067 95.9781 99.028C97.0608 98.4307 98.2274 98.132 99.4781 98.132ZM99.3661 100.652C98.4141 100.652 97.5834 100.96 96.8741 101.576C96.1834 102.173 95.7448 103.051 95.5581 104.208H102.782C102.707 103.088 102.362 102.22 101.746 101.604C101.13 100.969 100.337 100.652 99.3661 100.652ZM116.133 98.132C117.701 98.132 118.951 98.6453 119.885 99.672C120.818 100.699 121.285 102.183 121.285 104.124V113H118.401V104.992C118.401 103.648 118.149 102.612 117.645 101.884C117.141 101.156 116.375 100.792 115.349 100.792C114.303 100.792 113.407 101.165 112.661 101.912C111.933 102.64 111.569 103.685 111.569 105.048V113H108.685V98.468H111.233C111.27 99.3827 111.326 100.176 111.401 100.848C111.886 99.952 112.53 99.28 113.333 98.832C114.154 98.3653 115.087 98.132 116.133 98.132ZM135.394 91.692H138.25V113H135.73C135.636 111.731 135.571 110.937 135.534 110.62C135.011 111.516 134.32 112.188 133.462 112.636C132.622 113.084 131.726 113.308 130.774 113.308C129.635 113.308 128.571 113.009 127.582 112.412C126.592 111.815 125.799 110.947 125.202 109.808C124.604 108.651 124.306 107.288 124.306 105.72C124.306 104.171 124.604 102.827 125.202 101.688C125.799 100.531 126.592 99.6533 127.582 99.056C128.571 98.44 129.635 98.132 130.774 98.132C131.688 98.132 132.547 98.3373 133.35 98.748C134.171 99.1587 134.852 99.7653 135.394 100.568V91.692ZM131.25 110.732C132.388 110.732 133.359 110.321 134.162 109.5C134.983 108.679 135.394 107.419 135.394 105.72C135.394 104.04 134.983 102.799 134.162 101.996C133.359 101.193 132.388 100.792 131.25 100.792C130.055 100.792 129.094 101.221 128.366 102.08C127.656 102.939 127.302 104.152 127.302 105.72C127.302 107.307 127.656 108.539 128.366 109.416C129.094 110.293 130.055 110.732 131.25 110.732ZM143.913 109.64C144.51 109.64 145.005 109.883 145.397 110.368C145.789 110.835 145.985 111.544 145.985 112.496C145.985 113.877 145.602 115.025 144.837 115.94C144.09 116.873 143.11 117.452 141.897 117.676V116.108C143.278 115.735 144.025 114.82 144.137 113.364C144.099 113.383 144.025 113.392 143.913 113.392C143.39 113.392 142.961 113.215 142.625 112.86C142.307 112.487 142.149 112.039 142.149 111.516C142.149 110.993 142.317 110.555 142.653 110.2C142.989 109.827 143.409 109.64 143.913 109.64ZM164.506 98.132C165.626 98.132 166.671 98.44 167.642 99.056C168.631 99.6533 169.424 100.531 170.022 101.688C170.619 102.827 170.918 104.171 170.918 105.72C170.918 107.288 170.619 108.651 170.022 109.808C169.424 110.947 168.631 111.815 167.642 112.412C166.671 113.009 165.626 113.308 164.506 113.308C163.535 113.308 162.62 113.084 161.762 112.636C160.903 112.188 160.212 111.516 159.69 110.62C159.615 111.348 159.559 112.141 159.522 113H156.974V91.692H159.858V100.596C160.38 99.7747 161.043 99.1587 161.846 98.748C162.667 98.3373 163.554 98.132 164.506 98.132ZM164.002 110.732C165.178 110.732 166.12 110.293 166.83 109.416C167.558 108.52 167.922 107.288 167.922 105.72C167.922 104.171 167.567 102.967 166.858 102.108C166.148 101.231 165.196 100.792 164.002 100.792C162.863 100.792 161.883 101.193 161.062 101.996C160.259 102.799 159.858 104.04 159.858 105.72C159.858 107.419 160.259 108.679 161.062 109.5C161.883 110.321 162.863 110.732 164.002 110.732ZM173.333 105.72C173.333 104.245 173.66 102.929 174.313 101.772C174.966 100.615 175.834 99.7187 176.917 99.084C178.018 98.4493 179.204 98.132 180.473 98.132C181.724 98.132 182.89 98.4493 183.973 99.084C185.056 99.7187 185.924 100.615 186.577 101.772C187.23 102.929 187.557 104.245 187.557 105.72C187.557 107.195 187.23 108.511 186.577 109.668C185.924 110.825 185.056 111.721 183.973 112.356C182.89 112.991 181.724 113.308 180.473 113.308C179.204 113.308 178.018 112.991 176.917 112.356C175.834 111.721 174.966 110.825 174.313 109.668C173.66 108.511 173.333 107.195 173.333 105.72ZM176.357 105.72C176.357 107.251 176.74 108.464 177.505 109.36C178.289 110.256 179.269 110.704 180.445 110.704C181.64 110.704 182.62 110.256 183.385 109.36C184.15 108.464 184.533 107.251 184.533 105.72C184.533 104.189 184.141 102.976 183.357 102.08C182.592 101.184 181.621 100.736 180.445 100.736C179.269 100.736 178.289 101.184 177.505 102.08C176.74 102.976 176.357 104.189 176.357 105.72ZM197.434 98.132C197.919 98.132 198.367 98.1973 198.778 98.328C199.207 98.4587 199.543 98.636 199.786 98.86L198.694 101.128C198.265 100.867 197.789 100.736 197.266 100.736C196.202 100.736 195.334 101.175 194.662 102.052C194.009 102.929 193.682 104.18 193.682 105.804V113H190.798V98.468H193.346C193.383 99.364 193.439 100.148 193.514 100.82C193.943 99.924 194.485 99.252 195.138 98.804C195.81 98.356 196.575 98.132 197.434 98.132ZM208.399 98.132C208.884 98.132 209.332 98.1973 209.743 98.328C210.172 98.4587 210.508 98.636 210.751 98.86L209.659 101.128C209.229 100.867 208.753 100.736 208.231 100.736C207.167 100.736 206.299 101.175 205.627 102.052C204.973 102.929 204.647 104.18 204.647 105.804V113H201.763V98.468H204.311C204.348 99.364 204.404 100.148 204.479 100.82C204.908 99.924 205.449 99.252 206.103 98.804C206.775 98.356 207.54 98.132 208.399 98.132ZM210.958 105.72C210.958 104.245 211.285 102.929 211.938 101.772C212.591 100.615 213.459 99.7187 214.542 99.084C215.643 98.4493 216.829 98.132 218.098 98.132C219.349 98.132 220.515 98.4493 221.598 99.084C222.681 99.7187 223.549 100.615 224.202 101.772C224.855 102.929 225.182 104.245 225.182 105.72C225.182 107.195 224.855 108.511 224.202 109.668C223.549 110.825 222.681 111.721 221.598 112.356C220.515 112.991 219.349 113.308 218.098 113.308C216.829 113.308 215.643 112.991 214.542 112.356C213.459 111.721 212.591 110.825 211.938 109.668C211.285 108.511 210.958 107.195 210.958 105.72ZM213.982 105.72C213.982 107.251 214.365 108.464 215.13 109.36C215.914 110.256 216.894 110.704 218.07 110.704C219.265 110.704 220.245 110.256 221.01 109.36C221.775 108.464 222.158 107.251 222.158 105.72C222.158 104.189 221.766 102.976 220.982 102.08C220.217 101.184 219.246 100.736 218.07 100.736C216.894 100.736 215.914 101.184 215.13 102.08C214.365 102.976 213.982 104.189 213.982 105.72ZM238.153 98.468L241.709 108.772L245.013 98.468H247.757L242.577 113H240.617L236.921 102.948L233.393 113H231.405L226.001 98.468H228.997L232.553 108.828L235.829 98.468H238.153ZM249.05 109.64C249.647 109.64 250.142 109.883 250.534 110.368C250.926 110.835 251.122 111.544 251.122 112.496C251.122 113.877 250.739 115.025 249.974 115.94C249.227 116.873 248.247 117.452 247.034 117.676V116.108C248.415 115.735 249.162 114.82 249.274 113.364C249.236 113.383 249.162 113.392 249.05 113.392C248.527 113.392 248.098 113.215 247.762 112.86C247.444 112.487 247.285 112.039 247.285 111.516C247.285 110.993 247.454 110.555 247.79 110.2C248.126 109.827 248.546 109.64 249.05 109.64ZM268.298 98.132C269.568 98.132 270.678 98.4307 271.63 99.028C272.582 99.6067 273.32 100.409 273.842 101.436C274.365 102.444 274.626 103.583 274.626 104.852C274.626 105.281 274.58 105.795 274.486 106.392H264.294C264.406 107.848 264.854 108.949 265.638 109.696C266.422 110.424 267.402 110.788 268.578 110.788C270.109 110.788 271.22 110.153 271.91 108.884L274.066 110.144C273.693 111.152 272.984 111.936 271.938 112.496C270.893 113.037 269.726 113.308 268.438 113.308C267.113 113.308 265.909 113.019 264.826 112.44C263.744 111.843 262.876 110.965 262.222 109.808C261.588 108.651 261.27 107.269 261.27 105.664C261.27 104.096 261.588 102.743 262.222 101.604C262.876 100.465 263.734 99.6067 264.798 99.028C265.881 98.4307 267.048 98.132 268.298 98.132ZM268.186 100.652C267.234 100.652 266.404 100.96 265.694 101.576C265.004 102.173 264.565 103.051 264.378 104.208H271.602C271.528 103.088 271.182 102.22 270.566 101.604C269.95 100.969 269.157 100.652 268.186 100.652ZM283.273 98.132C285.009 98.132 286.409 98.6453 287.473 99.672C288.556 100.699 289.097 102.173 289.097 104.096V113H286.605C286.568 112.16 286.521 111.563 286.465 111.208C285.569 112.608 284.132 113.308 282.153 113.308C281.182 113.308 280.286 113.131 279.465 112.776C278.662 112.421 278.018 111.908 277.533 111.236C277.048 110.564 276.805 109.752 276.805 108.8C276.805 107.363 277.393 106.224 278.569 105.384C279.745 104.544 281.248 104.124 283.077 104.124C284.104 104.124 285.158 104.264 286.241 104.544V104.488C286.241 103.163 285.98 102.192 285.457 101.576C284.934 100.941 284.15 100.624 283.105 100.624C282.265 100.624 281.556 100.811 280.977 101.184C280.417 101.539 279.941 102.061 279.549 102.752L277.421 101.52C277.888 100.493 278.644 99.672 279.689 99.056C280.734 98.44 281.929 98.132 283.273 98.132ZM286.241 106.728C285.121 106.448 284.141 106.308 283.301 106.308C282.181 106.308 281.313 106.523 280.697 106.952C280.081 107.381 279.773 107.979 279.773 108.744C279.773 109.435 280.025 109.985 280.529 110.396C281.033 110.788 281.696 110.984 282.517 110.984C283.544 110.984 284.421 110.695 285.149 110.116C285.877 109.519 286.241 108.697 286.241 107.652V106.728ZM299.59 98.132C300.075 98.132 300.523 98.1973 300.934 98.328C301.363 98.4587 301.699 98.636 301.942 98.86L300.85 101.128C300.421 100.867 299.945 100.736 299.422 100.736C298.358 100.736 297.49 101.175 296.818 102.052C296.165 102.929 295.838 104.18 295.838 105.804V113H292.954V98.468H295.502C295.539 99.364 295.595 100.148 295.67 100.82C296.099 99.924 296.641 99.252 297.294 98.804C297.966 98.356 298.731 98.132 299.59 98.132ZM311.367 98.132C312.935 98.132 314.186 98.6453 315.119 99.672C316.052 100.699 316.519 102.183 316.519 104.124V113H313.635V104.992C313.635 103.648 313.383 102.612 312.879 101.884C312.375 101.156 311.61 100.792 310.583 100.792C309.538 100.792 308.642 101.165 307.895 101.912C307.167 102.64 306.803 103.685 306.803 105.048V113H303.919V98.468H306.467C306.504 99.3827 306.56 100.176 306.635 100.848C307.12 99.952 307.764 99.28 308.567 98.832C309.388 98.3653 310.322 98.132 311.367 98.132ZM321.948 109.64C322.545 109.64 323.04 109.883 323.432 110.368C323.824 110.835 324.02 111.544 324.02 112.496C324.02 113.877 323.637 115.025 322.872 115.94C322.125 116.873 321.145 117.452 319.932 117.676V116.108C321.313 115.735 322.06 114.82 322.172 113.364C322.135 113.383 322.06 113.392 321.948 113.392C321.425 113.392 320.996 113.215 320.66 112.86C320.343 112.487 320.184 112.039 320.184 111.516C320.184 110.993 320.352 110.555 320.688 110.2C321.024 109.827 321.444 109.64 321.948 109.64ZM337.893 113H335.009V91.692H337.893V113ZM348.169 98.132C349.439 98.132 350.55 98.4307 351.502 99.028C352.454 99.6067 353.191 100.409 353.714 101.436C354.236 102.444 354.498 103.583 354.498 104.852C354.498 105.281 354.451 105.795 354.358 106.392H344.166C344.278 107.848 344.726 108.949 345.51 109.696C346.294 110.424 347.274 110.788 348.45 110.788C349.98 110.788 351.091 110.153 351.782 108.884L353.938 110.144C353.564 111.152 352.855 111.936 351.81 112.496C350.764 113.037 349.598 113.308 348.31 113.308C346.984 113.308 345.78 113.019 344.698 112.44C343.615 111.843 342.747 110.965 342.094 109.808C341.459 108.651 341.142 107.269 341.142 105.664C341.142 104.096 341.459 102.743 342.094 101.604C342.747 100.465 343.606 99.6067 344.67 99.028C345.752 98.4307 346.919 98.132 348.169 98.132ZM348.058 100.652C347.106 100.652 346.275 100.96 345.566 101.576C344.875 102.173 344.436 103.051 344.25 104.208H351.474C351.399 103.088 351.054 102.22 350.438 101.604C349.822 100.969 349.028 100.652 348.058 100.652ZM358.749 98.468L362.977 109.248L366.953 98.468H369.949L363.985 113H361.661L355.501 98.468H358.749ZM377.81 98.132C379.079 98.132 380.19 98.4307 381.142 99.028C382.094 99.6067 382.831 100.409 383.354 101.436C383.877 102.444 384.138 103.583 384.138 104.852C384.138 105.281 384.091 105.795 383.998 106.392H373.806C373.918 107.848 374.366 108.949 375.15 109.696C375.934 110.424 376.914 110.788 378.09 110.788C379.621 110.788 380.731 110.153 381.422 108.884L383.578 110.144C383.205 111.152 382.495 111.936 381.45 112.496C380.405 113.037 379.238 113.308 377.95 113.308C376.625 113.308 375.421 113.019 374.338 112.44C373.255 111.843 372.387 110.965 371.734 109.808C371.099 108.651 370.782 107.269 370.782 105.664C370.782 104.096 371.099 102.743 371.734 101.604C372.387 100.465 373.246 99.6067 374.31 99.028C375.393 98.4307 376.559 98.132 377.81 98.132ZM377.698 100.652C376.746 100.652 375.915 100.96 375.206 101.576C374.515 102.173 374.077 103.051 373.89 104.208H381.114C381.039 103.088 380.694 102.22 380.078 101.604C379.462 100.969 378.669 100.652 377.698 100.652ZM393.653 98.132C394.138 98.132 394.586 98.1973 394.997 98.328C395.426 98.4587 395.762 98.636 396.005 98.86L394.913 101.128C394.483 100.867 394.007 100.736 393.485 100.736C392.421 100.736 391.553 101.175 390.881 102.052C390.227 102.929 389.901 104.18 389.901 105.804V113H387.017V98.468H389.565C389.602 99.364 389.658 100.148 389.733 100.82C390.162 99.924 390.703 99.252 391.357 98.804C392.029 98.356 392.794 98.132 393.653 98.132ZM402.574 98.132C404.31 98.132 405.71 98.6453 406.774 99.672C407.856 100.699 408.398 102.173 408.398 104.096V113H405.906C405.868 112.16 405.822 111.563 405.766 111.208C404.87 112.608 403.432 113.308 401.454 113.308C400.483 113.308 399.587 113.131 398.766 112.776C397.963 112.421 397.319 111.908 396.834 111.236C396.348 110.564 396.106 109.752 396.106 108.8C396.106 107.363 396.694 106.224 397.87 105.384C399.046 104.544 400.548 104.124 402.378 104.124C403.404 104.124 404.459 104.264 405.542 104.544V104.488C405.542 103.163 405.28 102.192 404.758 101.576C404.235 100.941 403.451 100.624 402.406 100.624C401.566 100.624 400.856 100.811 400.278 101.184C399.718 101.539 399.242 102.061 398.85 102.752L396.722 101.52C397.188 100.493 397.944 99.672 398.99 99.056C400.035 98.44 401.23 98.132 402.574 98.132ZM405.542 106.728C404.422 106.448 403.442 106.308 402.602 106.308C401.482 106.308 400.614 106.523 399.998 106.952C399.382 107.381 399.074 107.979 399.074 108.744C399.074 109.435 399.326 109.985 399.83 110.396C400.334 110.788 400.996 110.984 401.818 110.984C402.844 110.984 403.722 110.695 404.45 110.116C405.178 109.519 405.542 108.697 405.542 107.652V106.728ZM425.359 98.468V111.88C425.359 114.736 424.659 116.771 423.259 117.984C421.878 119.216 420.216 119.832 418.275 119.832C416.782 119.832 415.456 119.515 414.299 118.88C413.16 118.245 412.376 117.359 411.947 116.22L414.215 114.904C414.943 116.435 416.296 117.2 418.275 117.2C419.638 117.2 420.683 116.78 421.411 115.94C422.139 115.119 422.503 113.719 422.503 111.74L422.587 110.76C422.064 111.619 421.392 112.263 420.571 112.692C419.768 113.103 418.891 113.308 417.939 113.308C416.8 113.308 415.727 113.009 414.719 112.412C413.73 111.796 412.927 110.919 412.311 109.78C411.714 108.623 411.415 107.269 411.415 105.72C411.415 104.152 411.714 102.799 412.311 101.66C412.927 100.503 413.73 99.6253 414.719 99.028C415.727 98.4307 416.8 98.132 417.939 98.132C418.891 98.132 419.787 98.356 420.627 98.804C421.467 99.252 422.139 99.924 422.643 100.82C422.755 99.7373 422.82 98.9533 422.839 98.468H425.359ZM418.359 110.732C419.498 110.732 420.468 110.321 421.271 109.5C422.092 108.679 422.503 107.419 422.503 105.72C422.503 104.04 422.092 102.799 421.271 101.996C420.468 101.193 419.498 100.792 418.359 100.792C417.164 100.792 416.203 101.221 415.475 102.08C414.766 102.939 414.411 104.152 414.411 105.72C414.411 107.307 414.766 108.539 415.475 109.416C416.203 110.293 417.164 110.732 418.359 110.732ZM435.615 98.132C436.884 98.132 437.995 98.4307 438.947 99.028C439.899 99.6067 440.636 100.409 441.159 101.436C441.681 102.444 441.943 103.583 441.943 104.852C441.943 105.281 441.896 105.795 441.803 106.392H431.611C431.723 107.848 432.171 108.949 432.955 109.696C433.739 110.424 434.719 110.788 435.895 110.788C437.425 110.788 438.536 110.153 439.227 108.884L441.383 110.144C441.009 111.152 440.3 111.936 439.255 112.496C438.209 113.037 437.043 113.308 435.755 113.308C434.429 113.308 433.225 113.019 432.143 112.44C431.06 111.843 430.192 110.965 429.539 109.808C428.904 108.651 428.587 107.269 428.587 105.664C428.587 104.096 428.904 102.743 429.539 101.604C430.192 100.465 431.051 99.6067 432.115 99.028C433.197 98.4307 434.364 98.132 435.615 98.132ZM435.503 100.652C434.551 100.652 433.72 100.96 433.011 101.576C432.32 102.173 431.881 103.051 431.695 104.208H438.919C438.844 103.088 438.499 102.22 437.883 101.604C437.267 100.969 436.473 100.652 435.503 100.652ZM460.992 112.412C460.171 113.009 459.079 113.308 457.716 113.308C456.335 113.308 455.206 112.925 454.328 112.16C453.47 111.395 453.04 110.032 453.04 108.072V100.932H450.576V98.468H453.04V94.268H455.896V98.468H460.18V100.932H455.896V107.68C455.896 109.696 456.643 110.704 458.136 110.704C458.808 110.704 459.434 110.527 460.012 110.172L460.992 112.412ZM469.805 98.132C470.29 98.132 470.738 98.1973 471.149 98.328C471.578 98.4587 471.914 98.636 472.157 98.86L471.065 101.128C470.636 100.867 470.16 100.736 469.637 100.736C468.573 100.736 467.705 101.175 467.033 102.052C466.38 102.929 466.053 104.18 466.053 105.804V113H463.169V98.468H465.717C465.754 99.364 465.81 100.148 465.885 100.82C466.314 99.924 466.856 99.252 467.509 98.804C468.181 98.356 468.946 98.132 469.805 98.132ZM478.726 98.132C480.462 98.132 481.862 98.6453 482.926 99.672C484.009 100.699 484.55 102.173 484.55 104.096V113H482.058C482.021 112.16 481.974 111.563 481.918 111.208C481.022 112.608 479.585 113.308 477.606 113.308C476.635 113.308 475.739 113.131 474.918 112.776C474.115 112.421 473.471 111.908 472.986 111.236C472.501 110.564 472.258 109.752 472.258 108.8C472.258 107.363 472.846 106.224 474.022 105.384C475.198 104.544 476.701 104.124 478.53 104.124C479.557 104.124 480.611 104.264 481.694 104.544V104.488C481.694 103.163 481.433 102.192 480.91 101.576C480.387 100.941 479.603 100.624 478.558 100.624C477.718 100.624 477.009 100.811 476.43 101.184C475.87 101.539 475.394 102.061 475.002 102.752L472.874 101.52C473.341 100.493 474.097 99.672 475.142 99.056C476.187 98.44 477.382 98.132 478.726 98.132ZM481.694 106.728C480.574 106.448 479.594 106.308 478.754 106.308C477.634 106.308 476.766 106.523 476.15 106.952C475.534 107.381 475.226 107.979 475.226 108.744C475.226 109.435 475.478 109.985 475.982 110.396C476.486 110.788 477.149 110.984 477.97 110.984C478.997 110.984 479.874 110.695 480.602 110.116C481.33 109.519 481.694 108.697 481.694 107.652V106.728ZM498.655 91.692H501.511V113H498.991C498.898 111.731 498.833 110.937 498.795 110.62C498.273 111.516 497.582 112.188 496.723 112.636C495.883 113.084 494.987 113.308 494.035 113.308C492.897 113.308 491.833 113.009 490.843 112.412C489.854 111.815 489.061 110.947 488.463 109.808C487.866 108.651 487.567 107.288 487.567 105.72C487.567 104.171 487.866 102.827 488.463 101.688C489.061 100.531 489.854 99.6533 490.843 99.056C491.833 98.44 492.897 98.132 494.035 98.132C494.95 98.132 495.809 98.3373 496.611 98.748C497.433 99.1587 498.114 99.7653 498.655 100.568V91.692ZM494.511 110.732C495.65 110.732 496.621 110.321 497.423 109.5C498.245 108.679 498.655 107.419 498.655 105.72C498.655 104.04 498.245 102.799 497.423 101.996C496.621 101.193 495.65 100.792 494.511 100.792C493.317 100.792 492.355 101.221 491.627 102.08C490.918 102.939 490.563 104.152 490.563 105.72C490.563 107.307 490.918 108.539 491.627 109.416C492.355 110.293 493.317 110.732 494.511 110.732ZM507.035 96.116C506.549 96.116 506.129 95.9293 505.775 95.556C505.42 95.1827 505.243 94.744 505.243 94.24C505.243 93.736 505.42 93.3067 505.775 92.952C506.129 92.5787 506.549 92.392 507.035 92.392C507.557 92.392 507.996 92.5787 508.351 92.952C508.705 93.3067 508.883 93.736 508.883 94.24C508.883 94.744 508.696 95.1827 508.323 95.556C507.968 95.9293 507.539 96.116 507.035 96.116ZM508.491 113H505.607V98.468H508.491V113ZM520.055 98.132C521.623 98.132 522.873 98.6453 523.807 99.672C524.74 100.699 525.207 102.183 525.207 104.124V113H522.323V104.992C522.323 103.648 522.071 102.612 521.567 101.884C521.063 101.156 520.297 100.792 519.271 100.792C518.225 100.792 517.329 101.165 516.583 101.912C515.855 102.64 515.491 103.685 515.491 105.048V113H512.607V98.468H515.155C515.192 99.3827 515.248 100.176 515.323 100.848C515.808 99.952 516.452 99.28 517.255 98.832C518.076 98.3653 519.009 98.132 520.055 98.132ZM542.171 98.468V111.88C542.171 114.736 541.471 116.771 540.071 117.984C538.69 119.216 537.029 119.832 535.087 119.832C533.594 119.832 532.269 119.515 531.111 118.88C529.973 118.245 529.189 117.359 528.759 116.22L531.027 114.904C531.755 116.435 533.109 117.2 535.087 117.2C536.45 117.2 537.495 116.78 538.223 115.94C538.951 115.119 539.315 113.719 539.315 111.74L539.399 110.76C538.877 111.619 538.205 112.263 537.383 112.692C536.581 113.103 535.703 113.308 534.751 113.308C533.613 113.308 532.539 113.009 531.531 112.412C530.542 111.796 529.739 110.919 529.123 109.78C528.526 108.623 528.227 107.269 528.227 105.72C528.227 104.152 528.526 102.799 529.123 101.66C529.739 100.503 530.542 99.6253 531.531 99.028C532.539 98.4307 533.613 98.132 534.751 98.132C535.703 98.132 536.599 98.356 537.439 98.804C538.279 99.252 538.951 99.924 539.455 100.82C539.567 99.7373 539.633 98.9533 539.651 98.468H542.171ZM535.171 110.732C536.31 110.732 537.281 110.321 538.083 109.5C538.905 108.679 539.315 107.419 539.315 105.72C539.315 104.04 538.905 102.799 538.083 101.996C537.281 101.193 536.31 100.792 535.171 100.792C533.977 100.792 533.015 101.221 532.287 102.08C531.578 102.939 531.223 104.152 531.223 105.72C531.223 107.307 531.578 108.539 532.287 109.416C533.015 110.293 533.977 110.732 535.171 110.732Z" fill="black"/>
</svg>
