<svg width="20" height="20" viewBox="0 0 20 20" fill="none" xmlns="http://www.w3.org/2000/svg">
<path fill-rule="evenodd" clip-rule="evenodd" d="M7.31495 0C7.79666 -6.4736e-08 8.18717 0.390505 8.18717 0.872217V3.01983C8.18717 3.50154 7.79666 3.89205 7.31495 3.89205C6.83324 3.89205 6.44273 3.50154 6.44273 3.01983V0.872217C6.44273 0.390505 6.83324 -5.59175e-08 7.31495 0ZM18.1017 1.83674C16.1157 0.0489987 13.0648 0.19073 11.2515 2.14913L9.9217 3.47896C9.58107 3.81958 9.58107 4.37184 9.9217 4.71246C10.2623 5.05308 10.8146 5.05308 11.1552 4.71246L12.4975 3.3702C12.5062 3.36149 12.5147 3.3526 12.523 3.34353C13.6776 2.08677 15.6203 1.98342 16.9002 3.10269C18.0185 4.38279 17.9149 6.32564 16.659 7.47945C16.6499 7.48778 16.641 7.49631 16.6323 7.50502L15.29 8.84728C14.9494 9.1879 14.9494 9.74016 15.29 10.0808C15.6306 10.4214 16.1829 10.4214 16.5235 10.0808L17.8533 8.75096C19.8111 6.93837 19.9526 3.88759 18.1667 1.90176C18.1462 1.87896 18.1245 1.85726 18.1017 1.83674ZM7.47957 16.659C6.32581 17.915 4.38308 18.0186 3.10297 16.9004C1.98461 15.6201 2.08794 13.6767 3.34364 12.5231C3.35272 12.5148 3.36161 12.5062 3.37032 12.4975L4.71258 11.1553C5.0532 10.8147 5.0532 10.2624 4.71258 9.92178C4.37196 9.58115 3.8197 9.58115 3.47908 9.92178L2.14926 11.2516C0.191282 13.0644 0.0509228 16.1159 1.83658 18.1015C1.85718 18.1244 1.87898 18.1462 1.90189 18.1668C3.88772 19.9527 6.9385 19.8112 8.75108 17.8534L10.0809 16.5236C10.4215 16.183 10.4215 15.6307 10.0809 15.2901C9.74028 14.9495 9.18802 14.9495 8.8474 15.2901L7.50514 16.6324C7.49643 16.6411 7.48791 16.65 7.47957 16.659ZM1.32968 1.32975C1.67031 0.989127 2.22256 0.989127 2.56319 1.32975L5.78461 4.55117C6.12523 4.89179 6.12523 5.44405 5.78461 5.78467C5.44399 6.1253 4.89173 6.1253 4.55111 5.78467L1.32968 2.56325C0.989062 2.22263 0.989062 1.67037 1.32968 1.32975ZM0.872217 6.4428C0.390505 6.4428 -6.47342e-08 6.8333 0 7.31502C1.64764e-08 7.79673 0.390505 8.18723 0.872217 8.18723H3.01983C3.50154 8.18723 3.89205 7.79673 3.89205 7.31502C3.89205 6.8333 3.50154 6.4428 3.01983 6.4428H0.872217ZM15.4495 14.216C15.1088 13.8753 14.5566 13.8753 14.216 14.216C13.8753 14.5566 13.8753 15.1088 14.216 15.4495L17.4374 18.6709C17.778 19.0115 18.3303 19.0115 18.6709 18.6709C19.0115 18.3303 19.0115 17.778 18.6709 17.4374L15.4495 14.216ZM12.685 16.1079C13.1667 16.1079 13.5572 16.4984 13.5572 16.9801V19.1278C13.5572 19.6095 13.1667 20 12.685 20C12.2032 20 11.8127 19.6095 11.8127 19.1278V16.9801C11.8127 16.4984 12.2032 16.1079 12.685 16.1079ZM16.9801 11.8128C16.4984 11.8128 16.1079 12.2033 16.1079 12.685C16.1079 13.1667 16.4984 13.5572 16.9801 13.5572H19.1277C19.6094 13.5572 19.9999 13.1667 19.9999 12.685C19.9999 12.2033 19.6094 11.8128 19.1277 11.8128H16.9801Z" fill="url(#paint0_linear_6462_26065)"/>
<defs>
<linearGradient id="paint0_linear_6462_26065" x1="20.6204" y1="10" x2="-2.9562" y2="10" gradientUnits="userSpaceOnUse">
<stop stop-color="#03CDC1"/>
<stop offset="1" stop-color="#8AB9FF"/>
</linearGradient>
</defs>
</svg>
